<svg width="200" height="200" viewBox="0 0 200 200" fill="none" xmlns="http://www.w3.org/2000/svg">
<path d="M116.896 143.523L115.927 138.222L138.573 134.043L139.542 139.343L116.896 143.523Z" fill="#C1FBA4"/>
<path d="M136.712 139.058L133.159 135.031L152.291 118.16L155.843 122.187L136.712 139.058Z" fill="#C1FBA4"/>
<path d="M155.9 129.54L158.218 126.025L154.646 123.213L152.766 124.904L155.9 129.54Z" fill="#0D0D0D"/>
<path d="M168.174 133.8L165.174 140.7C164.269 142.802 162.71 144.556 160.728 145.7L175.7 157.373L184.516 146.506L168.174 133.8Z" fill="#0D0D0D"/>
<path d="M152.386 81.207C154.881 81.5554 157.414 80.9223 159.451 79.441C161.489 77.9597 162.872 75.7457 163.31 73.265C160.235 72.2759 156.994 71.9125 153.776 72.1964C150.559 72.4803 147.431 73.4057 144.577 74.918C145.191 76.5728 146.241 78.0308 147.616 79.1378C148.99 80.2449 150.639 80.9598 152.386 81.207Z" fill="#0D0D0D"/>
<path d="M95.142 77.407L81.311 66.654C79.3226 70.8689 76.445 74.6032 72.876 77.6L90.676 91.64L98.238 82.274L95.142 77.407Z" fill="#0D0D0D"/>
<path d="M106.237 92.53L99.4001 101.954C99.8813 102.838 100.441 103.677 101.072 104.461L106.237 92.53Z" fill="#0D0D0D"/>
<path d="M102.742 72.087L105.458 70.169C104.597 70.2252 103.733 70.2061 102.875 70.112L102.742 72.087Z" fill="#0D0D0D"/>
<path d="M120.809 81.986C121.009 80.4542 120.661 78.9011 119.827 77.6008C118.992 76.3006 117.726 75.337 116.25 74.88C116.439 74.3376 116.497 73.7583 116.421 73.189C115.167 64.032 113.267 58.389 110.132 55.16C108.004 52.936 103.654 53.298 101.07 56.546C98.504 59.799 99.149 64.09 99.132 64.446C99.3923 61.2496 100.884 58.2793 103.293 56.162C103.967 55.6085 104.76 55.2184 105.61 55.022C105.477 57.911 107.776 62.489 110.55 61.349C112.405 60.592 112.628 63.949 108.973 63.949C107.985 71.871 108.289 80.949 111.937 88.344L112.526 89.464C114.319 92.7296 116.882 95.5081 119.993 97.558C122.059 97.6662 124.083 96.9493 125.621 95.565C127.158 94.1807 128.082 92.2424 128.191 90.1765C128.299 88.1106 127.582 86.0864 126.198 84.549C124.813 83.0117 122.875 82.0872 120.809 81.979V81.986Z" fill="#0D0D0D"/>
<path d="M49.735 58.484C49.1355 58.467 48.5445 58.6282 48.0367 58.9472C47.5288 59.2661 47.1269 59.7285 46.8819 60.2758C46.6368 60.8232 46.5596 61.4309 46.6599 62.0221C46.7603 62.6134 47.0337 63.1616 47.4456 63.5974C47.8576 64.0333 48.3895 64.3372 48.9741 64.4707C49.5588 64.6042 50.1699 64.5613 50.7302 64.3475C51.2905 64.1337 51.7748 63.7586 52.1218 63.2695C52.4689 62.7805 52.6631 62.1995 52.68 61.6C52.7021 60.7964 52.4043 60.017 51.8521 59.4327C51.3 58.8485 50.5385 58.5073 49.735 58.484Z" fill="#0D0D0D"/>
<path d="M52.205 44.539C53.0159 43.3077 53.5118 41.896 53.6493 40.4281C53.7867 38.9602 53.5615 37.481 52.9933 36.1206C52.4251 34.7602 51.5314 33.5601 50.3907 32.626C49.2501 31.6919 47.8974 31.0523 46.4517 30.7635C45.0059 30.4747 43.5113 30.5454 42.0993 30.9696C40.6873 31.3937 39.4012 32.1582 38.3539 33.1959C37.3066 34.2336 36.5302 35.5127 36.0931 36.9208C35.656 38.3288 35.5715 39.8227 35.847 41.271C35.8696 41.4248 35.9013 41.577 35.942 41.727L40.311 40.911C40.2647 40.7613 40.227 40.609 40.198 40.455C40.0818 39.8629 40.084 39.2537 40.2044 38.6624C40.3248 38.0711 40.561 37.5095 40.8994 37.01C41.2379 36.5105 41.6719 36.0829 42.1764 35.7519C42.6809 35.4209 43.2459 35.193 43.8389 35.0814C44.4319 34.9698 45.0411 34.9767 45.6314 35.1017C46.2217 35.2267 46.7815 35.4673 47.2784 35.8096C47.7752 36.1519 48.1995 36.5893 48.5265 37.0963C48.8536 37.6034 49.0771 38.1702 49.184 38.764C49.584 40.945 48.399 42.619 46.923 44.464C45.954 45.6193 45.4229 47.0791 45.423 48.587C45.4287 50.8395 45.6972 53.0837 46.223 55.274L50.723 54.419C50.2402 52.4045 50.0293 50.3345 50.096 48.264C50.381 46.819 51.426 45.717 52.205 44.539Z" fill="#0D0D0D"/>
<path d="M99.7781 60.061C96.909 55.8662 94.5371 51.3523 92.7101 46.61C89.1226 46.9581 85.6863 48.2293 82.7361 50.3C85.2061 58.545 89.3661 68.71 98.2361 82.275" stroke="#0D0D0D" stroke-width="1.5" stroke-linecap="round" stroke-linejoin="round"/>
<path d="M85.776 44.558C85.2433 41.7863 85.0392 38.9615 85.168 36.142C85.1113 34.6851 85.2119 33.2263 85.468 31.791C86.168 27.854 87.127 28.238 87.444 32.038C88.219 41.346 90.444 44.425 91.262 46.819" stroke="#0D0D0D" stroke-width="1.5" stroke-linecap="round" stroke-linejoin="round"/>
<path d="M85.3 32.988C84.663 31.6445 83.8377 30.3986 82.849 29.288C82.549 29 81.849 28.971 82.716 31.378C82.902 31.892 83.645 34.114 83.875 34.912C84.4083 36.504 84.8398 38.1283 85.167 39.775" stroke="#0D0D0D" stroke-width="1.5" stroke-linecap="round" stroke-linejoin="round"/>
<path d="M85.4341 42.335C85.3011 44.216 82.3961 41.307 81.0261 40.207C79.7931 39.217 78.0261 38.588 80.5131 42.183C81.9869 44.4766 83.1017 46.9818 83.8191 49.612" stroke="#0D0D0D" stroke-width="1.5" stroke-linecap="round" stroke-linejoin="round"/>
<path d="M157.249 131.516L152.766 124.904" stroke="#0D0D0D" stroke-width="1.5" stroke-linecap="round" stroke-linejoin="round"/>
<path d="M102.9 70.063C102.9 70.063 102.69 72.695 102.481 76.552C102.063 77.141 101.664 77.73 101.246 78.352" stroke="#0D0D0D" stroke-width="1.5" stroke-linecap="round" stroke-linejoin="round"/>
<path d="M105.459 70.226L102.75 72.064" stroke="#0D0D0D" stroke-width="1.5" stroke-linecap="round" stroke-linejoin="round"/>
<path d="M134.109 134.176L118.929 117.438" stroke="#0D0D0D" stroke-width="1.5" stroke-linecap="round" stroke-linejoin="round"/>
<path d="M106.218 92.511L101.07 104.442" stroke="#0D0D0D" stroke-width="1.5" stroke-linecap="round" stroke-linejoin="round"/>
<path d="M145.356 124.258C139.458 114.779 130.893 107.251 120.734 102.619" stroke="#0D0D0D" stroke-width="1.5" stroke-linecap="round" stroke-linejoin="round"/>
<path d="M117.507 137.931L110.132 111.168" stroke="#0D0D0D" stroke-width="1.5" stroke-linecap="round" stroke-linejoin="round"/>
<path d="M139.086 136.968L139.542 139.343L116.896 143.523L115.927 138.222L133.159 135.05" stroke="#0D0D0D" stroke-width="1.5" stroke-linecap="round" stroke-linejoin="round"/>
<path d="M119.974 97.584C122.009 97.638 123.985 96.8955 125.481 95.5146C126.977 94.1337 127.875 92.2234 127.984 90.1904C128.093 88.1573 127.404 86.1621 126.064 84.6294C124.724 83.0967 122.838 82.1475 120.809 81.984C121.009 80.4521 120.661 78.899 119.827 77.5988C118.992 76.2986 117.726 75.3349 116.25 74.878C116.865 73.095 114.963 61.89 111.538 56.888C108.324 52.194 103.626 53.293 101.051 56.544C98.476 59.795 99.13 64.087 99.113 64.444" stroke="#0D0D0D" stroke-width="1.5" stroke-linecap="round" stroke-linejoin="round"/>
<path d="M155.9 129.54L168.839 109.857C171.308 105.886 171.213 104.632 172.315 101.897C177.483 99.085 189.205 95.779 195 95.019C190.744 101.669 180.77 105.601 176.837 113.847L165.153 140.673C164.462 142.262 163.397 143.66 162.048 144.747C160.7 145.834 159.108 146.579 157.409 146.917C155.709 147.255 153.954 147.176 152.292 146.688C150.629 146.199 149.11 145.315 147.864 144.112L139.808 136.342" stroke="#0D0D0D" stroke-width="1.5" stroke-linecap="round" stroke-linejoin="round"/>
<path d="M136.712 139.058L133.159 135.031L152.291 118.16L155.843 122.187L136.712 139.058Z" stroke="#0D0D0D" stroke-width="1.5" stroke-linecap="round" stroke-linejoin="round"/>
<path d="M51.5 89.281C53.571 89.072 50.128 85.788 49.562 84.781C48.797 83.416 47.986 81.835 51.557 84.344C54.45 86.17 57.4508 87.8193 60.543 89.283" stroke="#0D0D0D" stroke-width="1.5" stroke-linecap="round" stroke-linejoin="round"/>
<path d="M120.544 142.839L122.12 148.501C123.148 152.139 125.554 155.233 128.827 157.126C132.095 159.026 161.942 173.351 161.942 173.351C169.903 177.851 173.151 188.056 179.497 192.768C179.136 186.935 176.628 175.004 174.177 169.668C171.562 168.398 170.289 168.393 166.654 165.793L138.136 145.749L136.503 139.897" stroke="#0D0D0D" stroke-width="1.5" stroke-linecap="round" stroke-linejoin="round"/>
<path d="M106.218 92.511C105.136 93.917 98.647 102.896 93.508 109.99C92.308 111.646 90.5687 112.832 88.5891 113.345C86.6094 113.858 84.513 113.665 82.66 112.8L55.834 99.066L61.267 87.8L85.167 98.477" stroke="#0D0D0D" stroke-width="1.5" stroke-linecap="round" stroke-linejoin="round"/>
<path d="M116.573 94.829C118.352 96.572 120.41 98.0054 122.662 99.07C120.142 104.87 115.83 108.625 110.094 111.206C103.537 108.461 101.742 105.525 99.375 101.899" stroke="#0D0D0D" stroke-width="1.5" stroke-linecap="round" stroke-linejoin="round"/>
<path d="M151.189 119.11C139.419 103.334 126.947 100.837 122.662 99.07" stroke="#0D0D0D" stroke-width="1.5" stroke-linecap="round" stroke-linejoin="round"/>
<path d="M101.241 78.357C101.241 78.357 104.205 90.839 116.573 94.829C114.666 92.9484 113.092 90.7576 111.918 88.35C108.261 80.965 107.966 71.878 108.954 63.956H109.448C112.448 63.785 112.392 60.591 110.531 61.356C107.756 62.493 105.459 57.917 105.592 55.03C104.743 55.2276 103.95 55.6172 103.274 56.169C101.869 57.3993 100.767 58.9374 100.055 60.6635C99.342 62.3896 99.0375 64.2569 99.165 66.12C99.519 68.535 101.182 70.465 105.459 70.229" stroke="#0D0D0D" stroke-width="1.5" stroke-linecap="round" stroke-linejoin="round"/>
<path d="M101.241 78.357C99.455 81.057 85.529 97.565 83.667 100.586" stroke="#0D0D0D" stroke-width="1.5" stroke-linecap="round" stroke-linejoin="round"/>
<path d="M44.4152 91.447C43.5032 91.561 41.6232 91.942 41.0712 92.055C38.5642 92.571 38.8872 93.233 39.2862 93.271C40.9002 93.424 43.5222 93.405 45.0232 93.594C47.4362 93.899 52.0912 94.335 53.9152 95.418" stroke="#0D0D0D" stroke-width="1.5" stroke-linecap="round" stroke-linejoin="round"/>
<path d="M44.89 93.575C44.49 93.727 44.13 93.86 43.959 93.936C41.565 94.848 42.003 95.461 42.401 95.436C44.017 95.341 46.601 94.867 48.12 94.809C49.9468 94.7749 51.7727 94.9148 53.573 95.227" stroke="#0D0D0D" stroke-width="1.5" stroke-linecap="round" stroke-linejoin="round"/>
<path d="M114.293 38.992C114.263 39.4806 114.089 39.9494 113.792 40.3389C113.496 40.7285 113.091 41.0215 112.628 41.1807C112.165 41.3399 111.665 41.3583 111.192 41.2335C110.718 41.1087 110.293 40.8464 109.968 40.4796C109.644 40.1128 109.436 39.6581 109.37 39.1731C109.304 38.688 109.384 38.1942 109.599 37.7543C109.813 37.3144 110.154 36.9481 110.577 36.7017C111 36.4553 111.486 36.3399 111.975 36.37C112.629 36.4122 113.24 36.7116 113.675 37.2029C114.109 37.6942 114.331 38.3374 114.293 38.992Z" stroke="#0D0D0D" stroke-width="1.5" stroke-linecap="round" stroke-linejoin="round"/>
<path d="M179.972 98.762C180.339 95.211 179.915 91.6228 178.73 88.2551C177.546 84.8874 175.63 81.8237 173.122 79.2839C170.613 76.7441 167.573 74.7913 164.22 73.5656C160.867 72.3399 157.284 71.8717 153.729 72.1947C150.174 72.5177 146.734 73.6238 143.657 75.4336C140.58 77.2434 137.942 79.7121 135.931 82.6623C133.921 85.6126 132.59 88.9713 132.031 92.4973C131.473 96.0233 131.703 99.6292 132.703 103.056" stroke="#0D0D0D" stroke-width="1.5" stroke-linecap="round" stroke-linejoin="round"/>
<path d="M154.266 120.4C156.985 120.593 159.716 120.316 162.341 119.583" stroke="#0D0D0D" stroke-width="1.5" stroke-linecap="round" stroke-linejoin="round"/>
<path d="M155.083 61.923C153.178 61.6598 151.239 61.9671 149.508 62.806C147.778 63.645 146.336 64.9779 145.363 66.6364C144.39 68.295 143.931 70.2046 144.043 72.124C144.156 74.0435 144.834 75.8866 145.994 77.4204C147.153 78.9543 148.741 80.1101 150.557 80.7417C152.373 81.3733 154.336 81.4525 156.197 80.9691C158.058 80.4858 159.733 79.4616 161.013 78.0261C162.292 76.5906 163.117 74.8081 163.383 72.904C163.736 70.3475 163.061 67.7553 161.505 65.6964C159.949 63.6376 157.639 62.2804 155.083 61.923Z" stroke="#0D0D0D" stroke-width="1.5" stroke-linecap="round" stroke-linejoin="round"/>
<path d="M83.2491 32.931C80.8264 26.7508 76.9224 21.2605 71.8802 16.9431C66.8381 12.6256 60.8124 9.61309 54.333 8.17058C47.8535 6.72808 41.1189 6.89971 34.7214 8.6704C28.3238 10.4411 22.4594 13.7566 17.6437 18.3253C12.8281 22.894 9.20874 28.576 7.10406 34.8716C4.99938 41.1672 4.47382 47.8834 5.57359 54.4298C6.67335 60.9761 9.36477 67.1519 13.4111 72.4141C17.4575 77.6763 22.7348 81.8637 28.7791 84.608C35.9806 87.8205 43.9519 88.9019 51.7491 87.724" stroke="#0D0D0D" stroke-width="1.5" stroke-linecap="round" stroke-linejoin="round"/>
<path d="M84.9591 56.907C83.7282 62.2298 81.4299 67.2474 78.2035 71.6561C74.977 76.0649 70.8894 79.773 66.1881 82.556C62.9391 84.4741 59.4336 85.9199 55.7771 86.85" stroke="#0D0D0D" stroke-width="1.5" stroke-linecap="round" stroke-linejoin="round"/>
<path d="M58.474 18.682C53.2228 16.3396 47.4329 15.4707 41.7254 16.1686C36.018 16.8665 30.6081 19.1048 26.0759 22.6435C21.5438 26.1822 18.0604 30.8878 15.9992 36.2556C13.938 41.6235 13.3768 47.4512 14.3758 53.1137C15.3748 58.7763 17.8962 64.0601 21.6698 68.3986C25.4434 72.7371 30.3267 75.9666 35.7962 77.7408C41.2656 79.5151 47.1148 79.767 52.7166 78.4698C58.3183 77.1725 63.4613 74.3749 67.594 70.377C83.509 55.058 79.166 27.9 58.474 18.682Z" stroke="#0D0D0D" stroke-width="1.5" stroke-linecap="round" stroke-linejoin="round"/>
<path d="M29.634 114.075L38.07 120.762L46.676 107.558" stroke="#0D0D0D" stroke-width="1.5" stroke-linecap="round" stroke-linejoin="round"/>
<path d="M103.502 119.946L95.2939 120.99" stroke="#0D0D0D" stroke-width="1.5" stroke-linecap="round" stroke-linejoin="round"/>
<path d="M99.911 124.581L98.866 116.355" stroke="#0D0D0D" stroke-width="1.5" stroke-linecap="round" stroke-linejoin="round"/>
<path d="M52.68 61.6C52.6631 62.1995 52.4689 62.7805 52.1218 63.2695C51.7748 63.7586 51.2905 64.1337 50.7302 64.3475C50.1699 64.5613 49.5588 64.6042 48.9741 64.4707C48.3895 64.3372 47.8576 64.0333 47.4456 63.5974C47.0337 63.1616 46.7603 62.6134 46.6599 62.0221C46.5596 61.4309 46.6368 60.8232 46.8819 60.2758C47.1269 59.7285 47.5288 59.2661 48.0367 58.9472C48.5445 58.6282 49.1355 58.467 49.735 58.484C50.538 58.5088 51.2985 58.8505 51.8504 59.4344C52.4022 60.0183 52.7005 60.7969 52.68 61.6Z" stroke="#0D0D0D" stroke-width="1.5" stroke-linecap="round" stroke-linejoin="round"/>
<path d="M52.186 44.539C52.9968 43.3077 53.4928 41.896 53.6302 40.4281C53.7677 38.9602 53.5424 37.481 52.9742 36.1206C52.406 34.7602 51.5123 33.5601 50.3717 32.626C49.231 31.6919 47.8784 31.0523 46.4326 30.7635C44.9869 30.4747 43.4923 30.5454 42.0803 30.9696C40.6683 31.3937 39.3821 32.1582 38.3348 33.1959C37.2875 34.2336 36.5112 35.5127 36.0741 36.9208C35.637 38.3288 35.5525 39.8227 35.828 41.271C35.8505 41.4248 35.8822 41.577 35.923 41.727L40.293 40.911C40.2454 40.7616 40.2073 40.6093 40.179 40.455C40.0628 39.8629 40.0649 39.2537 40.1853 38.6624C40.3057 38.0711 40.5419 37.5095 40.8804 37.01C41.2189 36.5105 41.6529 36.0829 42.1574 35.7519C42.6619 35.4209 43.2269 35.193 43.8199 35.0814C44.4129 34.9698 45.0221 34.9767 45.6124 35.1017C46.2027 35.2267 46.7624 35.4673 47.2593 35.8096C47.7562 36.1519 48.1804 36.5893 48.5075 37.0963C48.8345 37.6034 49.058 38.1702 49.165 38.764C49.565 40.945 48.38 42.619 46.904 44.464C45.9349 45.6193 45.4039 47.0791 45.404 48.587C45.3823 49.3975 45.4178 50.2085 45.51 51.014C45.621 52.074 46.221 55.274 46.221 55.274L50.721 54.419C50.664 54.419 50.113 50.848 50.075 50.449C49.9705 49.7244 49.9705 48.9886 50.075 48.264C50.362 46.819 51.407 45.717 52.186 44.539Z" stroke="#0D0D0D" stroke-width="1.5" stroke-linecap="round" stroke-linejoin="round"/>
<path d="M56.764 97.128C54.1036 95.3713 51.2863 93.8649 48.348 92.628C45.989 91.7657 43.5401 91.1729 41.048 90.861C37.381 90.411 36.962 89.424 40.953 88.885C42.4215 88.7071 43.9016 88.6436 45.38 88.695C48.1832 88.7314 50.9739 89.0755 53.702 89.721" stroke="#0D0D0D" stroke-width="1.5" stroke-linecap="round" stroke-linejoin="round"/>
</svg>
