<svg width="250" height="250" viewBox="0 0 250 250" fill="none" xmlns="http://www.w3.org/2000/svg">
    <path d="M146.12 179.404L144.909 172.777L173.216 167.554L174.428 174.179L146.12 179.404Z" fill="#e0fdff" />
    <path d="M170.89 173.823L166.449 168.789L190.364 147.7L194.804 152.734L170.89 173.823Z" fill="#e0fdff" />
    <path d="M194.875 161.925L197.773 157.531L193.308 154.016L190.958 156.13L194.875 161.925Z" fill="#0D0D0D" />
    <path d="M210.218 167.25L206.468 175.875C205.336 178.502 203.388 180.695 200.91 182.125L219.625 196.716L230.645 183.132L210.218 167.25Z" fill="#0D0D0D" />
    <path d="M190.483 101.509C193.601 101.944 196.768 101.153 199.314 99.3012C201.861 97.4496 203.59 94.6821 204.138 91.5812C200.294 90.3449 196.243 89.8906 192.22 90.2455C188.199 90.6004 184.289 91.7571 180.721 93.6475C181.489 95.716 182.801 97.5385 184.52 98.9222C186.238 100.306 188.299 101.2 190.483 101.509Z" fill="#0D0D0D" />
    <path d="M118.928 96.7588L101.639 83.3175C99.1533 88.5861 95.5563 93.254 91.095 97L113.345 114.55L122.798 102.843L118.928 96.7588Z" fill="#0D0D0D" />
    <path d="M132.796 115.663L124.25 127.443C124.852 128.548 125.551 129.596 126.34 130.576L132.796 115.663Z" fill="#0D0D0D" />
    <path d="M128.428 90.1088L131.823 87.7113C130.746 87.7815 129.666 87.7576 128.594 87.64L128.428 90.1088Z" fill="#0D0D0D" />
    <path d="M151.011 102.483C151.261 100.568 150.826 98.6264 149.784 97.001C148.74 95.3758 147.158 94.1713 145.313 93.6C145.549 92.922 145.621 92.1979 145.526 91.4863C143.959 80.04 141.584 72.9863 137.665 68.95C135.005 66.17 129.568 66.6225 126.338 70.6825C123.13 74.7488 123.936 80.1125 123.915 80.5575C124.24 76.562 126.105 72.8491 129.116 70.2025C129.959 69.5106 130.95 69.023 132.013 68.7775C131.846 72.3888 134.72 78.1113 138.188 76.6863C140.506 75.74 140.785 79.9363 136.216 79.9363C134.981 89.8388 135.361 101.186 139.921 110.43L140.658 111.83C142.899 115.912 146.103 119.385 149.991 121.948C152.574 122.083 155.104 121.187 157.026 119.456C158.948 117.726 160.103 115.303 160.239 112.721C160.374 110.138 159.478 107.608 157.748 105.686C156.016 103.765 153.594 102.609 151.011 102.474V102.483Z" fill="#0D0D0D" />
    <path d="M62.1688 73.105C61.4194 73.0838 60.6806 73.2853 60.0459 73.684C59.411 74.0826 58.9086 74.6606 58.6024 75.3448C58.296 76.029 58.1995 76.7886 58.3249 77.5276C58.4504 78.2668 58.7921 78.952 59.307 79.4968C59.822 80.0416 60.4869 80.4215 61.2176 80.5884C61.9485 80.7553 62.7124 80.7016 63.4128 80.4344C64.1131 80.1671 64.7185 79.6983 65.1523 79.0869C65.5861 78.4756 65.8289 77.7494 65.85 77C65.8776 75.9955 65.5054 75.0213 64.8151 74.2909C64.125 73.5606 63.1731 73.1341 62.1688 73.105Z" fill="#0D0D0D" />
    <path d="M65.2563 55.6738C66.2699 54.1346 66.8898 52.37 67.0617 50.5351C67.2334 48.7003 66.9519 46.8513 66.2417 45.1508C65.5314 43.4503 64.4143 41.9501 62.9884 40.7825C61.5627 39.6149 59.8718 38.8154 58.0646 38.4544C56.2574 38.0934 54.3892 38.1818 52.6242 38.712C50.8591 39.2421 49.2515 40.1978 47.9424 41.4949C46.6333 42.792 45.6628 44.3909 45.1164 46.151C44.57 47.911 44.4644 49.7784 44.8088 51.5888C44.837 51.781 44.8766 51.9713 44.9275 52.1588L50.3888 51.1388C50.3309 50.9516 50.2838 50.7613 50.2475 50.5688C50.1023 49.8286 50.105 49.0671 50.2555 48.328C50.406 47.5889 50.7013 46.8869 51.1243 46.2625C51.5474 45.6381 52.0899 45.1036 52.7205 44.6899C53.3511 44.2761 54.0574 43.9913 54.7987 43.8518C55.5399 43.7123 56.3014 43.7209 57.0393 43.8771C57.7772 44.0334 58.4769 44.3341 59.098 44.762C59.719 45.1899 60.2494 45.7366 60.6582 46.3704C61.067 47.0043 61.3464 47.7128 61.48 48.455C61.98 51.1813 60.4988 53.2738 58.6538 55.58C57.4425 57.0241 56.7787 58.8489 56.7788 60.7338C56.7859 63.5494 57.1215 66.3546 57.7788 69.0925L63.4038 68.0238C62.8003 65.5056 62.5367 62.9181 62.62 60.33C62.9763 58.5238 64.2825 57.1463 65.2563 55.6738Z" fill="#0D0D0D" />
    <path d="M124.723 75.0763C121.136 69.8328 118.171 64.1904 115.888 58.2625C111.403 58.6976 107.108 60.2866 103.42 62.875C106.508 73.1813 111.708 85.8875 122.795 102.844" stroke="#0D0D0D" stroke-width="1.5" stroke-linecap="round" stroke-linejoin="round" />
    <path d="M107.22 55.6975C106.554 52.2329 106.299 48.7019 106.46 45.1775C106.389 43.3564 106.515 41.5329 106.835 39.7387C107.71 34.8175 108.909 35.2975 109.305 40.0475C110.274 51.6825 113.055 55.5312 114.078 58.5237" stroke="#0D0D0D" stroke-width="1.5" stroke-linecap="round" stroke-linejoin="round" />
    <path d="M106.625 41.235C105.829 39.5556 104.797 37.9982 103.561 36.61C103.186 36.25 102.311 36.2137 103.395 39.2225C103.627 39.865 104.556 42.6425 104.844 43.64C105.51 45.63 106.05 47.6604 106.459 49.7187" stroke="#0D0D0D" stroke-width="1.5" stroke-linecap="round" stroke-linejoin="round" />
    <path d="M106.793 52.9188C106.626 55.27 102.995 51.6338 101.283 50.2588C99.7414 49.0213 97.5326 48.235 100.641 52.7288C102.484 55.5958 103.877 58.7273 104.774 62.015" stroke="#0D0D0D" stroke-width="1.5" stroke-linecap="round" stroke-linejoin="round" />
    <path d="M196.561 164.395L190.958 156.13" stroke="#0D0D0D" stroke-width="1.5" stroke-linecap="round" stroke-linejoin="round" />
    <path d="M128.625 87.5788C128.625 87.5788 128.362 90.8688 128.101 95.69C127.579 96.4263 127.08 97.1625 126.557 97.94" stroke="#0D0D0D" stroke-width="1.5" stroke-linecap="round" stroke-linejoin="round" />
    <path d="M131.824 87.7825L128.438 90.08" stroke="#0D0D0D" stroke-width="1.5" stroke-linecap="round" stroke-linejoin="round" />
    <path d="M167.636 167.72L148.661 146.798" stroke="#0D0D0D" stroke-width="1.5" stroke-linecap="round" stroke-linejoin="round" />
    <path d="M132.773 115.639L126.338 130.553" stroke="#0D0D0D" stroke-width="1.5" stroke-linecap="round" stroke-linejoin="round" />
    <path d="M181.695 155.322C174.322 143.474 163.616 134.064 150.917 128.274" stroke="#0D0D0D" stroke-width="1.5" stroke-linecap="round" stroke-linejoin="round" />
    <path d="M146.884 172.414L137.665 138.96" stroke="#0D0D0D" stroke-width="1.5" stroke-linecap="round" stroke-linejoin="round" />
    <path d="M173.857 171.21L174.428 174.179L146.12 179.404L144.909 172.777L166.449 168.812" stroke="#0D0D0D" stroke-width="1.5" stroke-linecap="round" stroke-linejoin="round" />
    <path d="M149.968 121.98C152.511 122.047 154.981 121.119 156.851 119.393C158.721 117.667 159.844 115.279 159.98 112.738C160.116 110.197 159.255 107.703 157.58 105.787C155.905 103.871 153.548 102.684 151.011 102.48C151.261 100.565 150.826 98.6237 149.784 96.9985C148.74 95.3732 147.158 94.1686 145.313 93.5975C146.081 91.3687 143.704 77.3625 139.423 71.11C135.405 65.2425 129.533 66.6162 126.314 70.68C123.095 74.7437 123.913 80.1087 123.891 80.555" stroke="#0D0D0D" stroke-width="1.5" stroke-linecap="round" stroke-linejoin="round" />
    <path d="M194.875 161.925L211.049 137.321C214.135 132.357 214.016 130.79 215.394 127.371C221.854 123.856 236.506 119.724 243.75 118.774C238.43 127.086 225.963 132.001 221.046 142.309L206.441 175.841C205.578 177.827 204.246 179.575 202.56 180.934C200.875 182.292 198.885 183.224 196.761 183.646C194.636 184.069 192.443 183.97 190.365 183.36C188.286 182.749 186.388 181.644 184.83 180.14L174.76 170.427" stroke="#0D0D0D" stroke-width="1.5" stroke-linecap="round" stroke-linejoin="round" />
    <path d="M170.89 173.823L166.449 168.789L190.364 147.7L194.804 152.734L170.89 173.823Z" stroke="#0D0D0D" stroke-width="1.5" stroke-linecap="round" stroke-linejoin="round" />
    <path d="M64.375 111.601C66.9638 111.34 62.66 107.235 61.9525 105.976C60.9963 104.27 59.9825 102.294 64.4463 105.43C68.0625 107.712 71.8135 109.774 75.6788 111.604" stroke="#0D0D0D" stroke-width="1.5" stroke-linecap="round" stroke-linejoin="round" />
    <path d="M150.68 178.549L152.65 185.626C153.935 190.174 156.942 194.041 161.034 196.408C165.119 198.783 202.427 216.689 202.427 216.689C212.379 222.314 216.439 235.07 224.371 240.96C223.92 233.669 220.785 218.755 217.721 212.085C214.452 210.498 212.861 210.491 208.317 207.241L172.67 182.186L170.629 174.871" stroke="#0D0D0D" stroke-width="1.5" stroke-linecap="round" stroke-linejoin="round" />
    <path d="M132.772 115.639C131.42 117.396 123.309 128.62 116.885 137.487C115.385 139.557 113.211 141.04 110.736 141.681C108.262 142.323 105.641 142.081 103.325 141L69.7925 123.832L76.5837 109.75L106.459 123.096" stroke="#0D0D0D" stroke-width="1.5" stroke-linecap="round" stroke-linejoin="round" />
    <path d="M145.716 118.536C147.94 120.715 150.513 122.507 153.328 123.838C150.178 131.088 144.788 135.781 137.618 139.008C129.421 135.576 127.178 131.906 124.219 127.374" stroke="#0D0D0D" stroke-width="1.5" stroke-linecap="round" stroke-linejoin="round" />
    <path d="M188.986 148.887C174.274 129.167 158.684 126.046 153.328 123.837" stroke="#0D0D0D" stroke-width="1.5" stroke-linecap="round" stroke-linejoin="round" />
    <path d="M126.551 97.9463C126.551 97.9463 130.256 113.549 145.716 118.536C143.333 116.186 141.365 113.447 139.898 110.438C135.326 101.206 134.958 89.8475 136.193 79.945H136.81C140.56 79.7313 140.49 75.7388 138.164 76.695C134.695 78.1163 131.824 72.3963 131.99 68.7875C130.929 69.0345 129.938 69.5215 129.093 70.2113C127.336 71.7491 125.959 73.6718 125.069 75.8294C124.178 77.987 123.797 80.3211 123.956 82.65C124.399 85.6688 126.478 88.0813 131.824 87.7863" stroke="#0D0D0D" stroke-width="1.5" stroke-linecap="round" stroke-linejoin="round" />
    <path d="M126.551 97.9463C124.319 101.321 106.911 121.956 104.584 125.733" stroke="#0D0D0D" stroke-width="1.5" stroke-linecap="round" stroke-linejoin="round" />
    <path d="M55.519 114.309C54.379 114.451 52.029 114.928 51.339 115.069C48.2052 115.714 48.609 116.541 49.1077 116.589C51.1252 116.78 54.4027 116.756 56.279 116.993C59.2952 117.374 65.114 117.919 67.394 119.273" stroke="#0D0D0D" stroke-width="1.5" stroke-linecap="round" stroke-linejoin="round" />
    <path d="M56.1125 116.969C55.6125 117.159 55.1625 117.325 54.9487 117.42C51.9562 118.56 52.5037 119.326 53.0012 119.295C55.0212 119.176 58.2512 118.584 60.15 118.511C62.4335 118.469 64.7159 118.644 66.9662 119.034" stroke="#0D0D0D" stroke-width="1.5" stroke-linecap="round" stroke-linejoin="round" />
    <path d="M142.866 48.74C142.829 49.3507 142.611 49.9367 142.24 50.4236C141.87 50.9106 141.364 51.2769 140.785 51.4759C140.206 51.6749 139.581 51.6979 138.99 51.5419C138.398 51.3859 137.866 51.058 137.46 50.5995C137.055 50.141 136.795 49.5726 136.713 48.9664C136.63 48.36 136.73 47.7427 136.999 47.1929C137.266 46.643 137.693 46.1851 138.221 45.8771C138.75 45.5691 139.358 45.4249 139.969 45.4625C140.786 45.5152 141.55 45.8895 142.094 46.5036C142.636 47.1177 142.914 47.9217 142.866 48.74Z" stroke="#0D0D0D" stroke-width="1.5" stroke-linecap="round" stroke-linejoin="round" />
    <path d="M224.965 123.452C225.424 119.014 224.894 114.528 223.413 110.319C221.933 106.109 219.538 102.28 216.403 99.1049C213.266 95.9301 209.466 93.4891 205.275 91.957C201.084 90.4249 196.605 89.8396 192.161 90.2434C187.718 90.6471 183.418 92.0297 179.571 94.292C175.725 96.5542 172.428 99.6401 169.914 103.328C167.401 107.016 165.738 111.214 165.039 115.622C164.341 120.029 164.629 124.536 165.879 128.82" stroke="#0D0D0D" stroke-width="1.5" stroke-linecap="round" stroke-linejoin="round" />
    <path d="M192.833 150.5C196.231 150.741 199.645 150.395 202.926 149.479" stroke="#0D0D0D" stroke-width="1.5" stroke-linecap="round" stroke-linejoin="round" />
    <path d="M193.854 77.4037C191.472 77.0747 189.049 77.4589 186.885 78.5075C184.722 79.5562 182.92 81.2224 181.704 83.2955C180.488 85.3687 179.914 87.7557 180.054 90.155C180.195 92.5544 181.042 94.8582 182.492 96.7755C183.941 98.6929 185.926 100.138 188.196 100.927C190.466 101.717 192.92 101.816 195.246 101.211C197.573 100.607 199.666 99.327 201.266 97.5326C202.865 95.7382 203.896 93.5101 204.229 91.13C204.67 87.9344 203.826 84.6941 201.881 82.1205C199.936 79.547 197.049 77.8505 193.854 77.4037Z" stroke="#0D0D0D" stroke-width="1.5" stroke-linecap="round" stroke-linejoin="round" />
    <path d="M104.061 41.1638C101.033 33.4385 96.153 26.5756 89.8503 21.1789C83.5476 15.782 76.0155 12.0164 67.9163 10.2132C59.8169 8.4101 51.3986 8.62464 43.4018 10.838C35.4048 13.0514 28.0742 17.1958 22.0546 22.9066C16.0351 28.6175 11.5109 35.72 8.88007 43.5895C6.24922 51.459 5.59227 59.8542 6.96699 68.0372C8.34169 76.2201 11.706 83.9399 16.7639 90.5176C21.8219 97.0954 28.4185 102.33 35.9739 105.76C44.9758 109.776 54.9399 111.127 64.6864 109.655" stroke="#0D0D0D" stroke-width="1.5" stroke-linecap="round" stroke-linejoin="round" />
    <path d="M106.199 71.1338C104.66 77.7873 101.787 84.0593 97.7544 89.5701C93.7213 95.0811 88.6118 99.7163 82.7351 103.195C78.6739 105.593 74.292 107.4 69.7214 108.563" stroke="#0D0D0D" stroke-width="1.5" stroke-linecap="round" stroke-linejoin="round" />
    <path d="M73.0925 23.3525C66.5285 20.4245 59.2911 19.3384 52.1567 20.2107C45.0225 21.0831 38.2601 23.881 32.5949 28.3044C26.9297 32.7277 22.5755 38.6097 19.999 45.3195C17.4225 52.0294 16.721 59.314 17.9697 66.3921C19.2185 73.4704 22.3702 80.0751 27.0872 85.4982C31.8042 90.9214 37.9084 94.9582 44.7452 97.176C51.582 99.3939 58.8935 99.7087 65.8957 98.0872C72.8979 96.4656 79.3266 92.9686 84.4925 87.9712C104.386 68.8225 98.9575 34.875 73.0925 23.3525Z" stroke="#0D0D0D" stroke-width="1.5" stroke-linecap="round" stroke-linejoin="round" />
    <path d="M37.0425 142.594L47.5875 150.953L58.345 134.448" stroke="#0D0D0D" stroke-width="1.5" stroke-linecap="round" stroke-linejoin="round" />
    <path d="M129.377 149.932L119.117 151.237" stroke="#0D0D0D" stroke-width="1.5" stroke-linecap="round" stroke-linejoin="round" />
    <path d="M124.889 155.726L123.583 145.444" stroke="#0D0D0D" stroke-width="1.5" stroke-linecap="round" stroke-linejoin="round" />
    <path d="M65.85 77C65.8289 77.7494 65.5861 78.4756 65.1523 79.0869C64.7185 79.6983 64.1131 80.1671 63.4128 80.4344C62.7124 80.7016 61.9485 80.7553 61.2176 80.5884C60.4869 80.4215 59.822 80.0416 59.307 79.4968C58.7921 78.952 58.4504 78.2668 58.3249 77.5276C58.1995 76.7886 58.296 76.029 58.6024 75.3448C58.9086 74.6606 59.411 74.0826 60.0459 73.684C60.6806 73.2853 61.4194 73.0838 62.1688 73.105C63.1725 73.136 64.1231 73.5631 64.813 74.293C65.5028 75.0229 65.8756 75.9961 65.85 77Z" stroke="#0D0D0D" stroke-width="1.5" stroke-linecap="round" stroke-linejoin="round" />
    <path d="M65.2325 55.6738C66.246 54.1346 66.866 52.37 67.0377 50.5351C67.2096 48.7003 66.928 46.8513 66.2177 45.1508C65.5075 43.4503 64.3903 41.9501 62.9646 40.7825C61.5387 39.6149 59.848 38.8154 58.0407 38.4544C56.2336 38.0934 54.3653 38.1818 52.6003 38.712C50.8353 39.2421 49.2276 40.1978 47.9185 41.4949C46.6093 42.792 45.639 44.3909 45.0926 46.151C44.5462 47.911 44.4406 49.7784 44.785 51.5888C44.8131 51.781 44.8527 51.9713 44.9037 52.1588L50.3662 51.1388C50.3067 50.952 50.2591 50.7616 50.2237 50.5688C50.0785 49.8286 50.0811 49.0671 50.2316 48.328C50.3821 47.5889 50.6773 46.8869 51.1005 46.2625C51.5236 45.6381 52.0661 45.1036 52.6967 44.6899C53.3273 44.2761 54.0336 43.9913 54.7748 43.8518C55.5161 43.7123 56.2776 43.7209 57.0155 43.8771C57.7533 44.0334 58.453 44.3341 59.0741 44.762C59.6952 45.1899 60.2255 45.7366 60.6343 46.3704C61.0431 47.0043 61.3225 47.7128 61.4562 48.455C61.9562 51.1813 60.475 53.2738 58.63 55.58C57.4186 57.0241 56.7548 58.8489 56.755 60.7338C56.7278 61.7469 56.7722 62.7606 56.8875 63.7675C57.0262 65.0925 57.7762 69.0925 57.7762 69.0925L63.4012 68.0238C63.33 68.0238 62.6412 63.56 62.5937 63.0613C62.4631 62.1555 62.4631 61.2358 62.5937 60.33C62.9525 58.5238 64.2587 57.1463 65.2325 55.6738Z" stroke="#0D0D0D" stroke-width="1.5" stroke-linecap="round" stroke-linejoin="round" />
    <path d="M70.955 121.41C67.6295 119.214 64.1079 117.331 60.435 115.785C57.4863 114.707 54.4251 113.966 51.31 113.576C46.7263 113.014 46.2025 111.78 51.1913 111.106C53.0269 110.884 54.877 110.805 56.725 110.869C60.229 110.914 63.7174 111.344 67.1275 112.151" stroke="#0D0D0D" stroke-width="1.5" stroke-linecap="round" stroke-linejoin="round" />
</svg>