<svg width="108" height="22" viewBox="0 0 108 22" fill="none" xmlns="http://www.w3.org/2000/svg">
<path d="M6.99199 17.336C5.74399 17.336 4.65599 17.112 3.72799 16.664C2.79999 16.216 2.07999 15.552 1.56799 14.672C1.05599 13.776 0.799988 12.68 0.799988 11.384V0.199951H2.79199V11.408C2.79199 12.784 3.15999 13.816 3.89599 14.504C4.63199 15.192 5.66399 15.536 6.99199 15.536C8.31999 15.536 9.35199 15.192 10.088 14.504C10.824 13.816 11.192 12.784 11.192 11.408V0.199951H13.208V11.384C13.208 12.68 12.952 13.776 12.44 14.672C11.928 15.552 11.2 16.216 10.256 16.664C9.32799 17.112 8.23999 17.336 6.99199 17.336Z" fill="#0D0D0D"/>
<path d="M16.9764 17V0.199951H18.8724V17H16.9764Z" fill="#0D0D0D"/>
<path d="M27.1792 17C26.5072 17 25.9872 16.816 25.6192 16.448C25.2672 16.08 25.0912 15.576 25.0912 14.936V6.91995H21.5632V5.26395H25.0912V1.08795H26.9872V5.26395H30.8272V6.91995H26.9872V14.648C26.9872 15.128 27.2192 15.368 27.6832 15.368H30.2992V17H27.1792Z" fill="#0D0D0D"/>
<path d="M37.4279 17.336C36.6119 17.336 35.8679 17.192 35.1959 16.904C34.5239 16.616 33.9959 16.2 33.6119 15.656C33.2279 15.112 33.0359 14.448 33.0359 13.664C33.0359 12.864 33.2279 12.208 33.6119 11.696C33.9959 11.168 34.5239 10.776 35.1959 10.52C35.8679 10.248 36.6199 10.112 37.4519 10.112H41.4119V9.24795C41.4119 8.41595 41.1639 7.75995 40.6679 7.27995C40.1879 6.79995 39.4679 6.55995 38.5079 6.55995C37.5639 6.55995 36.8279 6.79195 36.2999 7.25595C35.7719 7.70395 35.4119 8.31195 35.2199 9.07995L33.4439 8.50395C33.6359 7.84795 33.9399 7.25595 34.3559 6.72795C34.7719 6.18395 35.3239 5.75195 36.0119 5.43195C36.7159 5.09595 37.5559 4.92795 38.5319 4.92795C40.0359 4.92795 41.2039 5.31995 42.0359 6.10395C42.8679 6.87195 43.2839 7.95995 43.2839 9.36795V14.672C43.2839 15.152 43.5079 15.392 43.9559 15.392H45.0359V17H43.3799C42.8519 17 42.4279 16.856 42.1079 16.568C41.7879 16.264 41.6279 15.864 41.6279 15.368V15.248H41.3399C41.1639 15.552 40.9239 15.872 40.6199 16.208C40.3319 16.528 39.9319 16.792 39.4199 17C38.9079 17.224 38.2439 17.336 37.4279 17.336ZM37.6439 15.704C38.7639 15.704 39.6679 15.376 40.3559 14.72C41.0599 14.048 41.4119 13.112 41.4119 11.912V11.648H37.5239C36.7719 11.648 36.1479 11.816 35.6519 12.152C35.1719 12.472 34.9319 12.96 34.9319 13.616C34.9319 14.272 35.1799 14.784 35.6759 15.152C36.1879 15.52 36.8439 15.704 37.6439 15.704Z" fill="#0D0D0D"/>
<path d="M47.5606 17V0.199951H49.5766V15.176H58.0726V17H47.5606Z" fill="#0D0D0D"/>
<path d="M66.0644 17.336C64.8804 17.336 63.8324 17.088 62.9204 16.592C62.0244 16.096 61.3204 15.4 60.8084 14.504C60.3124 13.592 60.0644 12.52 60.0644 11.288V10.976C60.0644 9.75995 60.3124 8.69595 60.8084 7.78395C61.3204 6.87195 62.0244 6.16795 62.9204 5.67195C63.8324 5.17595 64.8804 4.92795 66.0644 4.92795C67.2484 4.92795 68.2884 5.17595 69.1844 5.67195C70.0964 6.16795 70.8004 6.87195 71.2964 7.78395C71.8084 8.69595 72.0644 9.75995 72.0644 10.976V11.288C72.0644 12.52 71.8084 13.592 71.2964 14.504C70.8004 15.4 70.0964 16.096 69.1844 16.592C68.2884 17.088 67.2484 17.336 66.0644 17.336ZM66.0644 15.632C67.3124 15.632 68.3044 15.24 69.0404 14.456C69.7924 13.656 70.1684 12.584 70.1684 11.24V11.024C70.1684 9.67995 69.7924 8.61595 69.0404 7.83195C68.3044 7.03195 67.3124 6.63195 66.0644 6.63195C64.8324 6.63195 63.8404 7.03195 63.0884 7.83195C62.3364 8.61595 61.9604 9.67995 61.9604 11.024V11.24C61.9604 12.584 62.3364 13.656 63.0884 14.456C63.8404 15.24 64.8324 15.632 66.0644 15.632Z" fill="#0D0D0D"/>
<path d="M74.9004 11.192V10.856C74.9004 9.62395 75.1484 8.56795 75.6444 7.68795C76.1404 6.80795 76.8124 6.12795 77.6604 5.64795C78.5084 5.16795 79.4364 4.92795 80.4444 4.92795C81.6764 4.92795 82.6204 5.16795 83.2764 5.64795C83.9484 6.11195 84.4444 6.63195 84.7644 7.20795H85.1004V5.26395H86.9004V19.736C86.9004 20.376 86.7244 20.88 86.3724 21.248C86.0204 21.616 85.5084 21.8 84.8364 21.8H76.8684V20.12H84.3324C84.8124 20.12 85.0524 19.88 85.0524 19.4V14.936H84.7164C84.5244 15.288 84.2524 15.632 83.9004 15.968C83.5484 16.304 83.0924 16.584 82.5324 16.808C81.9724 17.016 81.2764 17.12 80.4444 17.12C79.4364 17.12 78.5084 16.88 77.6604 16.4C76.8124 15.92 76.1404 15.24 75.6444 14.36C75.1484 13.464 74.9004 12.408 74.9004 11.192ZM80.9484 15.44C82.1644 15.44 83.1484 15.056 83.9004 14.288C84.6684 13.52 85.0524 12.464 85.0524 11.12V10.928C85.0524 9.56795 84.6684 8.51195 83.9004 7.75995C83.1484 6.99195 82.1644 6.60795 80.9484 6.60795C79.7484 6.60795 78.7564 6.99195 77.9724 7.75995C77.2044 8.51195 76.8204 9.56795 76.8204 10.928V11.12C76.8204 12.464 77.2044 13.52 77.9724 14.288C78.7564 15.056 79.7484 15.44 80.9484 15.44Z" fill="#0D0D0D"/>
<path d="M90.8748 17V5.26395H92.7708V17H90.8748ZM91.8348 3.43995C91.4188 3.43995 91.0668 3.30395 90.7788 3.03195C90.5068 2.75995 90.3708 2.41595 90.3708 1.99995C90.3708 1.56795 90.5068 1.21595 90.7788 0.943952C91.0668 0.671951 91.4188 0.535951 91.8348 0.535951C92.2508 0.535951 92.5948 0.671951 92.8668 0.943952C93.1388 1.21595 93.2748 1.56795 93.2748 1.99995C93.2748 2.41595 93.1388 2.75995 92.8668 3.03195C92.5948 3.30395 92.2508 3.43995 91.8348 3.43995Z" fill="#0D0D0D"/>
<path d="M102.158 17.336C101.022 17.336 99.9976 17.096 99.0856 16.616C98.1896 16.12 97.4776 15.416 96.9496 14.504C96.4376 13.592 96.1816 12.512 96.1816 11.264V11C96.1816 9.73595 96.4376 8.65595 96.9496 7.75995C97.4776 6.84795 98.1896 6.15195 99.0856 5.67195C99.9976 5.17595 101.022 4.92795 102.158 4.92795C103.278 4.92795 104.23 5.13595 105.014 5.55195C105.814 5.96795 106.438 6.51995 106.886 7.20795C107.35 7.89595 107.646 8.63195 107.774 9.41595L105.926 9.79995C105.846 9.22395 105.654 8.69595 105.35 8.21595C105.062 7.73595 104.654 7.35195 104.126 7.06395C103.598 6.77595 102.95 6.63195 102.182 6.63195C101.398 6.63195 100.694 6.80795 100.07 7.15995C99.4616 7.51195 98.9736 8.01595 98.6056 8.67195C98.2536 9.32795 98.0776 10.112 98.0776 11.024V11.24C98.0776 12.152 98.2536 12.936 98.6056 13.592C98.9736 14.248 99.4616 14.752 100.07 15.104C100.694 15.456 101.398 15.632 102.182 15.632C103.35 15.632 104.238 15.328 104.846 14.72C105.47 14.112 105.854 13.36 105.998 12.464L107.87 12.872C107.694 13.64 107.374 14.368 106.91 15.056C106.446 15.744 105.814 16.296 105.014 16.712C104.23 17.128 103.278 17.336 102.158 17.336Z" fill="#0D0D0D"/>
</svg>
