<svg width="20" height="26" viewBox="0 0 20 26" fill="none" xmlns="http://www.w3.org/2000/svg">
    <path
        d="M9.18468e-05 9.32261C9.18468e-05 8.19899 0.196509 7.13747 0.583567 6.14671C0.953371 5.18441 1.5028 4.30122 2.20257 3.54418C2.90091 2.79709 3.70006 2.15106 4.57691 1.62478C5.47655 1.08052 6.45052 0.669914 7.46828 0.405839C8.49834 0.135362 9.55899 -0.00104185 10.624 5.99116e-06C12.269 5.99116e-06 13.7999 0.348069 15.2195 1.04131C16.6207 1.7219 17.8133 2.76638 18.6727 4.06556C19.5595 5.38704 20 6.88183 20 8.54849C20 9.54791 19.9018 10.5257 19.701 11.4818C19.5039 12.4373 19.1906 13.3652 18.7681 14.2446C18.3653 15.0959 17.8387 15.8829 17.2054 16.5799C16.5689 17.2659 15.798 17.8135 14.9408 18.1888C14.0101 18.5967 13.0034 18.802 11.9873 18.7911C11.2811 18.7911 10.5763 18.625 9.88017 18.2914C9.18405 17.9592 8.68434 17.5028 8.38394 16.9179C8.27851 17.3237 8.13408 17.9101 7.942 18.677C7.75713 19.4424 7.63293 19.9364 7.57805 20.1602C7.52028 20.3826 7.4134 20.7538 7.25742 21.268C7.15164 21.6483 7.01594 22.0197 6.85159 22.3786L6.35477 23.352C6.13991 23.7697 5.89972 24.1739 5.63554 24.5623C5.37413 24.9407 5.05062 25.3927 4.665 25.9127L4.44981 25.9892L4.30683 25.8332C4.1523 24.1969 4.07286 23.2177 4.07286 22.8942C4.07286 21.9366 4.18696 20.8621 4.41226 19.6692C4.63323 18.4777 4.98274 16.98 5.45212 15.179C5.9215 13.3795 6.19013 12.3209 6.26234 12.0075C5.93161 11.333 5.76407 10.452 5.76407 9.36883C5.76407 8.50372 6.03415 7.6935 6.57574 6.93094C7.11878 6.17127 7.80479 5.79143 8.63668 5.79143C9.27359 5.79143 9.76752 6.00229 10.1214 6.42545C10.4766 6.84717 10.65 7.37866 10.65 8.02712C10.65 8.71458 10.4218 9.70967 9.9625 11.0109C9.50323 12.3136 9.27503 13.2856 9.27503 13.9312C9.27503 14.5854 9.509 15.1328 9.97694 15.5617C10.4387 15.9909 11.0494 16.2235 11.6797 16.2102C12.2516 16.2102 12.7817 16.0802 13.2741 15.8188C13.7589 15.5651 14.1786 15.2028 14.5003 14.7602C15.2011 13.7988 15.7007 12.7058 15.9691 11.5467C16.1078 10.9373 16.2146 10.3581 16.2811 9.81365C16.3518 9.26628 16.3822 8.74924 16.3822 8.2582C16.3822 6.45723 15.8102 5.05342 14.6736 4.04823C13.5312 3.04303 12.0437 2.54332 10.2138 2.54332C8.13264 2.54332 6.39232 3.21634 4.99863 4.56671C3.60348 5.91275 2.90158 7.62418 2.90158 9.69956C2.90158 10.1574 2.9709 10.5993 3.10233 11.0268C3.23087 11.4529 3.37096 11.7923 3.52261 12.0436C3.67281 12.2905 3.81434 12.5317 3.94288 12.7541C4.07286 12.9766 4.14074 13.1354 4.14074 13.2307C4.14074 13.5225 4.0642 13.9023 3.90966 14.3717C3.74935 14.8411 3.56016 15.075 3.33197 15.075C3.3103 15.075 3.22076 15.0592 3.06478 15.0259C2.52458 14.8647 2.03673 14.5632 1.65086 14.1522C1.24133 13.7262 0.918132 13.225 0.699106 12.6761C0.480704 12.1293 0.310597 11.5644 0.190732 10.9878C0.0612291 10.4423 -0.00276938 9.88328 9.18468e-05 9.32261V9.32261Z"
        fill="#0D0D0D" />
</svg>