<svg width="250" height="250" viewBox="0 0 250 250" fill="none" xmlns="http://www.w3.org/2000/svg">
    <path d="M173.875 125.304C171.548 120.269 168.033 112.787 166.346 109.701C163.678 104.839 161.54 104.71 159.316 102.624C157.476 102.446 155.696 101.879 154.093 100.961C153.869 101.088 153.631 101.188 153.385 101.259C153.954 102.134 152.656 103.247 151.449 103.56C152.074 104.014 151.438 105.385 150.199 105.592C149.583 105.592 148.869 105.672 145.924 105.688C145.118 107.656 144.071 107.67 143.278 106.37C141.556 103.554 141.77 94.4562 144.238 93.8125L127.59 95.1875C125.939 95.3284 124.382 96.0137 123.163 97.1357C121.943 98.2579 121.131 99.7531 120.854 101.387C120.577 103.02 120.85 104.7 121.631 106.161C122.411 107.623 123.656 108.783 125.168 109.461L136.21 114.4L134.856 121.025L155.543 130.81L161.503 117.914V125.609L164.139 130.334L157.448 148.75C160.76 151.146 164.713 152.502 168.799 152.645L174.451 135.38C175.543 132.07 175.336 128.469 173.875 125.304ZM137.308 109.25L126.764 108.681L137.593 107.826L137.308 109.25Z" fill="#e0fdff" />
    <path d="M190.671 166.698L183.237 186.717L175.354 183.774L182.786 163.776L190.671 166.698Z" fill="#0D0D0D" />
    <path d="M80.0737 128.177L67.1537 120.482C66.8166 120.286 66.4171 120.227 66.0375 120.316L45.1862 123.066L67.25 130.837C67.5492 130.941 67.7997 131.151 67.9532 131.427C68.1066 131.705 68.1522 132.029 68.0812 132.337C68.0365 132.502 67.9582 132.657 67.8512 132.791C67.7442 132.925 67.6109 133.035 67.4595 133.116C67.308 133.196 67.1417 133.244 66.9708 133.257C66.8 133.27 66.6282 133.249 66.4662 133.192L44.5687 124.425L58.625 140.336C58.8574 140.645 59.1959 140.856 59.575 140.93L74.375 143.519C74.7252 143.575 75.0842 143.51 75.3915 143.332C75.6987 143.155 75.9354 142.876 76.0612 142.545L80.7162 130.006C80.839 129.674 80.842 129.31 80.7246 128.976C80.6073 128.642 80.3771 128.36 80.0737 128.177Z" fill="#0D0D0D" />
    <path d="M171.408 92.7575C171.178 92.5455 170.932 92.3504 170.675 92.1737C173.236 93.44 173.315 90.565 170.556 88.6362C166.219 84.9887 162.819 84.8512 160.569 85.5437C163.311 85.305 163.85 87.8512 163.027 90.44C162.761 91.04 163.375 91.065 164.027 90.9625C165.975 90.7012 165.666 93.7125 163.152 93.3375C163.027 93.505 160.619 96.6875 160.516 96.8287C160.899 96.3964 161.385 96.0686 161.93 95.8761C162.474 95.6837 163.059 95.633 163.627 95.7287C165.727 96.1949 167.679 97.177 169.304 98.5862C170.444 99.6787 171.804 100.13 172.344 99.5862C172.884 99.0425 172.391 97.6862 171.251 96.5937C171.06 96.4125 170.84 96.1875 170.619 95.9687C172.575 96.6662 173.433 94.6975 171.408 92.7575Z" fill="#0D0D0D" />
    <path d="M123.747 134.186L125.196 137.415L137.094 133.568L123.747 134.186Z" fill="#0D0D0D" />
    <path d="M161.531 117.917V125.612L159.585 122.122L161.531 117.917Z" fill="#0D0D0D" />
    <path d="M145.952 105.688C145.121 107.754 143.862 107.849 142.96 105.735C143.767 105.735 144.86 105.711 145.952 105.688Z" fill="#0D0D0D" />
    <path d="M145.976 95.4275C144.94 95.6026 143.892 95.698 142.841 95.7125C143.649 93.4087 145 93.0525 145.976 95.4275Z" fill="#0D0D0D" />
    <path d="M137.592 107.825L137.307 109.249L126.764 108.68L137.592 107.825Z" fill="#0D0D0D" />
    <path d="M9.84877 156.273C9.67027 156.606 9.39689 156.879 9.06321 157.058C8.72951 157.235 8.35051 157.31 7.97409 157.274C7.59768 157.236 7.24078 157.088 6.94853 156.848C6.65627 156.608 6.44178 156.286 6.33217 155.924C6.22257 155.563 6.22278 155.176 6.33277 154.814C6.44277 154.453 6.65761 154.131 6.95012 153.891C7.24264 153.651 7.59969 153.504 7.97614 153.466C8.35259 153.43 8.73152 153.505 9.06502 153.684C9.51128 153.924 9.84423 154.331 9.99111 154.816C10.138 155.301 10.0868 155.825 9.84877 156.273Z" fill="#0D0D0D" />
    <path d="M80.5962 94.2637C80.4177 94.5972 80.1444 94.8702 79.8106 95.0483C79.477 95.2265 79.098 95.3016 78.7216 95.2644C78.3451 95.2271 77.9882 95.079 77.696 94.8389C77.4037 94.5987 77.1892 94.2774 77.0796 93.9154C76.97 93.5534 76.9702 93.167 77.0802 92.805C77.1902 92.4431 77.4051 92.122 77.6976 91.8822C77.9901 91.6423 78.3471 91.4947 78.7236 91.4578C79.1001 91.421 79.479 91.4965 79.8125 91.675C80.2587 91.9152 80.5917 92.3225 80.7386 92.8076C80.8855 93.2927 80.8342 93.8162 80.5962 94.2637Z" fill="#0D0D0D" />
    <path d="M233.419 101.531C237.836 99.2812 239.926 103.645 243.75 103.531C240.852 106.856 235.984 108.091 232.849 105.051L233.419 101.531Z" fill="#0D0D0D" />
    <path d="M202.903 64.9337C202.834 65.1227 202.691 65.2764 202.509 65.361C202.326 65.4456 202.118 65.4542 201.929 65.385C201.74 65.3157 201.586 65.1742 201.501 64.9916C201.416 64.809 201.409 64.6002 201.478 64.4112C201.546 64.2222 201.689 64.0686 201.871 63.984C202.054 63.8994 202.263 63.8907 202.451 63.96C202.64 64.0292 202.794 64.1707 202.879 64.3534C202.964 64.536 202.971 64.7447 202.903 64.9337Z" fill="#0D0D0D" />
    <path d="M211.19 158.576L215.227 151.285L219.122 153.446L215.085 160.736L211.19 158.576Z" fill="#0D0D0D" />
    <path d="M93.0875 116.184C90.095 116.73 87.15 116.944 84.9187 117.347C80.1925 118.202 76.0362 119.176 75.7037 120.079C74.54 123.261 86.4612 123.356 90.9737 126.329C94.6337 128.725 95.9562 129.052 99.2862 127.136C96.3199 124.074 94.186 120.303 93.0875 116.184Z" fill="#0D0D0D" />
    <path d="M108.975 179.375C108.244 181.368 107.194 183.229 105.865 184.884C104.904 185.9 103.727 186.686 102.421 187.188C96.965 189.438 89.5787 200.104 87.4112 197.091C86.7962 196.235 88.4825 191.915 90.6175 187.116C92.1387 183.698 95.1537 178.544 97.6 174.008C100.963 176.591 104.842 178.423 108.975 179.375Z" fill="#0D0D0D" />
    <path d="M141.654 147.39C141.645 147.614 141.55 147.826 141.389 147.982C141.227 148.137 141.011 148.225 140.787 148.225C140.562 148.225 140.346 148.137 140.185 147.982C140.024 147.826 139.929 147.614 139.92 147.39C139.929 147.166 140.024 146.954 140.185 146.797C140.346 146.642 140.562 146.555 140.787 146.555C141.011 146.555 141.227 146.642 141.389 146.797C141.55 146.954 141.645 147.166 141.654 147.39Z" fill="#0D0D0D" />
    <path d="M149.681 131.93C149.673 132.154 149.578 132.366 149.416 132.522C149.255 132.677 149.039 132.765 148.814 132.765C148.59 132.765 148.374 132.677 148.213 132.522C148.051 132.366 147.956 132.154 147.948 131.93C147.956 131.706 148.051 131.494 148.213 131.337C148.374 131.182 148.59 131.095 148.814 131.095C149.039 131.095 149.255 131.182 149.416 131.337C149.578 131.494 149.673 131.706 149.681 131.93Z" fill="#0D0D0D" />
    <path d="M128.5 129.25C128.491 129.474 128.396 129.686 128.235 129.843C128.074 129.998 127.857 130.085 127.632 130.085C127.409 130.085 127.192 129.998 127.031 129.843C126.87 129.686 126.775 129.474 126.766 129.25C126.775 129.026 126.87 128.814 127.031 128.658C127.192 128.503 127.409 128.415 127.632 128.415C127.857 128.415 128.074 128.503 128.235 128.658C128.396 128.814 128.491 129.026 128.5 129.25Z" fill="#0D0D0D" />
    <path d="M129.922 114.5C129.914 114.724 129.819 114.936 129.657 115.092C129.496 115.248 129.28 115.335 129.055 115.335C128.831 115.335 128.615 115.248 128.454 115.092C128.292 114.936 128.197 114.724 128.189 114.5C128.197 114.276 128.292 114.064 128.454 113.908C128.615 113.752 128.831 113.665 129.055 113.665C129.28 113.665 129.496 113.752 129.657 113.908C129.819 114.064 129.914 114.276 129.922 114.5Z" fill="#0D0D0D" />
    <path d="M116.789 106.827C116.78 107.052 116.685 107.264 116.523 107.419C116.362 107.575 116.146 107.662 115.922 107.662C115.697 107.662 115.482 107.575 115.32 107.419C115.159 107.264 115.063 107.052 115.055 106.827C115.063 106.603 115.159 106.391 115.32 106.235C115.482 106.08 115.697 105.993 115.922 105.993C116.146 105.993 116.362 106.08 116.523 106.235C116.685 106.391 116.78 106.603 116.789 106.827Z" fill="#0D0D0D" />
    <path d="M97.8613 116.16C97.8528 116.384 97.7576 116.596 97.596 116.752C97.4344 116.908 97.2187 116.995 96.9944 116.995C96.77 116.995 96.5544 116.908 96.3927 116.752C96.2311 116.596 96.136 116.384 96.1275 116.16C96.136 115.936 96.2311 115.724 96.3927 115.568C96.5544 115.412 96.77 115.325 96.9944 115.325C97.2187 115.325 97.4344 115.412 97.596 115.568C97.7576 115.724 97.8528 115.936 97.8613 116.16Z" fill="#0D0D0D" />
    <path d="M110.899 117.918C110.89 118.142 110.795 118.354 110.633 118.51C110.472 118.665 110.256 118.752 110.032 118.752C109.807 118.752 109.592 118.665 109.43 118.51C109.269 118.354 109.173 118.142 109.165 117.918C109.173 117.693 109.269 117.481 109.43 117.326C109.592 117.17 109.807 117.083 110.032 117.083C110.256 117.083 110.472 117.17 110.633 117.326C110.795 117.481 110.89 117.693 110.899 117.918Z" fill="#0D0D0D" />
    <path d="M117.953 155.489C117.944 155.712 117.849 155.925 117.687 156.081C117.526 156.236 117.31 156.324 117.086 156.324C116.861 156.324 116.646 156.236 116.484 156.081C116.322 155.925 116.227 155.712 116.219 155.489C116.227 155.265 116.322 155.052 116.484 154.896C116.646 154.741 116.861 154.654 117.086 154.654C117.31 154.654 117.526 154.741 117.687 154.896C117.849 155.052 117.944 155.265 117.953 155.489Z" fill="#0D0D0D" />
    <path d="M127.429 140.028C127.42 140.251 127.325 140.464 127.164 140.62C127.003 140.775 126.786 140.863 126.561 140.863C126.338 140.863 126.121 140.775 125.96 140.62C125.799 140.464 125.704 140.251 125.695 140.028C125.704 139.804 125.799 139.591 125.96 139.435C126.121 139.28 126.338 139.193 126.561 139.193C126.786 139.193 127.003 139.28 127.164 139.435C127.325 139.591 127.42 139.804 127.429 140.028Z" fill="#0D0D0D" />
    <path d="M102.635 166.887C102.626 167.111 102.531 167.324 102.37 167.48C102.208 167.635 101.992 167.722 101.768 167.722C101.544 167.722 101.328 167.635 101.166 167.48C101.005 167.324 100.91 167.111 100.901 166.887C100.91 166.664 101.005 166.451 101.166 166.295C101.328 166.14 101.544 166.052 101.768 166.052C101.992 166.052 102.208 166.14 102.37 166.295C102.531 166.451 102.626 166.664 102.635 166.887Z" fill="#0D0D0D" />
    <path d="M228.361 144.089L228.195 135.752L232.659 135.657L232.825 143.994L228.361 144.089Z" fill="#0D0D0D" />
    <path d="M222.661 144.207L222.471 135.871L226.936 135.776L227.102 144.112L222.661 144.207Z" fill="#0D0D0D" />
    <path d="M102.944 159.501L73.7087 148.649L82.805 124.164L121.61 138.579" stroke="#0D0D0D" stroke-width="1.5" stroke-linecap="round" stroke-linejoin="round" />
    <path d="M166.685 155.323L183.594 161.615L174.499 186.076L117.074 164.75" stroke="#0D0D0D" stroke-width="1.5" stroke-linecap="round" stroke-linejoin="round" />
    <path d="M148.114 148.435L156.676 151.612" stroke="#0D0D0D" stroke-width="1.5" stroke-linecap="round" stroke-linejoin="round" />
    <path d="M190.671 166.698L183.237 186.717L175.354 183.774L182.786 163.776L190.671 166.698Z" stroke="#0D0D0D" stroke-width="1.5" stroke-linecap="round" stroke-linejoin="round" />
    <path d="M79.9788 128.154L67.1775 120.506C66.8404 120.31 66.4409 120.25 66.0613 120.34L45.1863 123.071L67.2725 130.837C67.5718 130.941 67.8223 131.151 67.9758 131.427C68.1292 131.705 68.1748 132.029 68.1038 132.337C68.059 132.502 67.9808 132.657 67.8738 132.791C67.7668 132.925 67.6335 133.036 67.482 133.116C67.3305 133.196 67.1643 133.244 66.9934 133.257C66.8225 133.27 66.6508 133.249 66.4888 133.192L44.5925 124.405L58.625 140.312C58.8574 140.621 59.1959 140.832 59.575 140.906L74.275 143.471C74.6255 143.529 74.9853 143.464 75.2933 143.287C75.6013 143.11 75.8385 142.832 75.965 142.5L80.625 129.982C80.7474 129.65 80.7499 129.285 80.6319 128.951C80.5139 128.617 80.2828 128.335 79.9788 128.154Z" stroke="#0D0D0D" stroke-width="1.5" stroke-linecap="round" stroke-linejoin="round" />
    <path d="M78.3025 136.211L108.406 147.39" stroke="#0D0D0D" stroke-width="1.5" stroke-linecap="round" stroke-linejoin="round" />
    <path d="M158.634 166.032L179.13 173.656" stroke="#0D0D0D" stroke-width="1.5" stroke-linecap="round" stroke-linejoin="round" />
    <path d="M156.141 165.106L157.186 165.51" stroke="#0D0D0D" stroke-width="1.5" stroke-linecap="round" stroke-linejoin="round" />
    <path d="M152.745 163.847L154.55 164.512" stroke="#0D0D0D" stroke-width="1.5" stroke-linecap="round" stroke-linejoin="round" />
    <path d="M126.574 154.135L152.389 163.705" stroke="#0D0D0D" stroke-width="1.5" stroke-linecap="round" stroke-linejoin="round" />
    <path d="M174.356 126.491C181.93 129.28 188.608 134.067 193.679 140.346C198.749 146.625 202.025 154.16 203.158 162.15C204.29 170.141 203.238 178.29 200.111 185.73C196.985 193.171 191.901 199.625 185.4 204.409C178.9 209.192 171.225 212.125 163.191 212.897C155.158 213.669 147.065 212.25 139.773 208.792C132.48 205.334 126.261 199.965 121.775 193.256C117.289 186.546 114.704 178.747 114.295 170.687" stroke="#0D0D0D" stroke-width="1.5" stroke-linecap="round" stroke-linejoin="round" />
    <path d="M134.885 121.029L136.239 114.404L125.196 109.465C123.678 108.792 122.427 107.632 121.641 106.168C120.856 104.704 120.581 103.021 120.86 101.383C121.138 99.7455 121.955 98.2475 123.18 97.1259C124.405 96.0044 125.969 95.3231 127.625 95.19L144.399 93.815" stroke="#0D0D0D" stroke-width="1.5" stroke-linecap="round" stroke-linejoin="round" />
    <path d="M154.099 100.961C155.703 101.879 157.483 102.446 159.323 102.624C160.109 103.325 160.954 103.958 161.848 104.515C163.77 105.827 165.32 107.613 166.348 109.701C168.038 112.786 171.598 120.245 173.876 125.304C175.368 128.457 175.58 132.065 174.47 135.372L168.818 152.639C164.723 152.5 160.763 151.144 157.443 148.744L164.163 130.339L159.585 122.125L155.571 130.816" stroke="#0D0D0D" stroke-width="1.5" stroke-linecap="round" stroke-linejoin="round" />
    <path d="M137.308 109.249L126.764 108.68L137.593 107.825L137.308 109.249Z" stroke="#0D0D0D" stroke-width="1.5" stroke-linecap="round" stroke-linejoin="round" />
    <path d="M153.838 92.6725C154.58 90.8421 155.689 89.183 157.096 87.7975C161.42 83.4137 164.445 85.9312 163.028 90.3975C162.778 91.0225 163.403 91.0425 164.028 90.9437C165.969 90.6375 165.666 93.6937 163.153 93.3187C161.674 95.1224 160.348 97.0456 159.186 99.0687C158.926 99.6312 158.803 100.248 158.828 100.867C158.853 101.487 159.024 102.091 159.329 102.631" stroke="#0D0D0D" stroke-width="1.5" stroke-linecap="round" stroke-linejoin="round" />
    <path d="M153.98 96.235C153.544 95.6352 153.363 94.8878 153.474 94.155" stroke="#0D0D0D" stroke-width="1.5" stroke-linecap="round" stroke-linejoin="round" />
    <path d="M160.261 85.6475C164.194 84.2212 168.261 86.3525 171.292 89.1812C173.394 91.14 172.884 93.2187 170.675 92.1262C173.397 94.0712 172.864 97.3762 169.962 95.4512C170.901 95.9212 173.337 98.5587 172.361 99.5837C171.827 100.141 170.437 99.6787 169.297 98.5837C169.274 98.56 163.56 93.6125 160.609 96.72" stroke="#0D0D0D" stroke-width="1.5" stroke-linecap="round" stroke-linejoin="round" />
    <path d="M123.747 134.186L137.094 133.568L125.196 137.415" stroke="#0D0D0D" stroke-width="1.5" stroke-linecap="round" stroke-linejoin="round" />
    <path d="M161.531 117.917V125.612L159.585 122.122L161.531 117.917Z" stroke="#0D0D0D" stroke-width="1.5" stroke-linecap="round" stroke-linejoin="round" />
    <path d="M130.635 111.909L134.885 121.034L155.571 130.819L155.548 130.866C155.381 133.455 153.576 148.872 142.936 150.839C135.076 152.291 126.859 154.045 121.539 155.256L110.115 179.622C104.313 178.534 100.965 176.476 96.7688 173.329L107.931 148.345C108.804 146.391 110.078 144.641 111.669 143.209C113.26 141.777 115.134 140.695 117.169 140.032L125.196 137.42L116.79 118.632L99.8563 127.726C98.0755 125.922 96.538 123.893 95.2825 121.691C94.1996 119.779 93.4116 117.714 92.945 115.566H92.9688L115.958 101.911C117.471 101.004 119.238 100.613 120.993 100.795" stroke="#0D0D0D" stroke-width="1.5" stroke-linecap="round" stroke-linejoin="round" />
    <path d="M99.2863 127.132C98.0794 127.964 96.6425 128.395 95.1775 128.367C93.6693 127.934 92.2472 127.242 90.9738 126.325C86.4588 123.361 74.5363 123.26 75.7038 120.075C76.035 119.172 80.1925 118.2 84.9188 117.344C87.15 116.94 90.095 116.726 93.0875 116.18C94.186 120.3 96.3199 124.07 99.2863 127.132Z" stroke="#0D0D0D" stroke-width="1.5" stroke-linecap="round" stroke-linejoin="round" />
    <path d="M152.721 99.0612C153.268 98.9662 154.835 98.7525 155.69 98.515" stroke="#0D0D0D" stroke-width="1.5" stroke-linecap="round" stroke-linejoin="round" />
    <path d="M149.301 96.4012C149.966 96.4487 150.608 96.4725 151.176 96.4725" stroke="#0D0D0D" stroke-width="1.5" stroke-linecap="round" stroke-linejoin="round" />
    <path d="M153.42 101.24L151.059 101.531" stroke="#0D0D0D" stroke-width="1.5" stroke-linecap="round" stroke-linejoin="round" />
    <path d="M160.154 94.8575C159.845 94.2162 156.949 95.5462 155.95 95.8075C154.395 96.2376 152.791 96.4612 151.177 96.4725C155.619 92.4825 154.716 91.6512 150.489 94.1687C148.056 95.1455 145.462 95.661 142.841 95.6887C141.854 98.9642 141.904 102.465 142.984 105.711C151.505 105.547 149.762 105.569 150.234 105.569C151.537 105.351 152.202 103.93 151.405 103.555C152.632 103.269 154.001 102.132 153.426 101.24C154.045 101.086 154.599 100.739 155.007 100.249C155.415 99.7588 155.656 99.1515 155.696 98.515C156.912 98.27 160.662 95.9137 160.154 94.8575Z" stroke="#0D0D0D" stroke-width="1.5" stroke-linecap="round" stroke-linejoin="round" />
    <path d="M149.681 103.787C149.681 103.787 150.924 103.602 151.399 103.555" stroke="#0D0D0D" stroke-width="1.5" stroke-linecap="round" stroke-linejoin="round" />
    <path d="M145.953 95.4275C145.553 94.4013 144.97 93.8025 144.393 93.8113C142.579 93.9488 142.088 98.8575 142.115 100.811C142.14 102.686 142.713 107.282 144.456 107.282C145.005 107.252 145.533 106.657 145.929 105.691" stroke="#0D0D0D" stroke-width="1.5" stroke-linecap="round" stroke-linejoin="round" />
    <path d="M157.258 153.969C156.198 156.946 154.684 159.741 152.769 162.256C151.691 163.771 152.531 164.489 154.099 163.064C155.506 161.735 156.771 160.262 157.874 158.671" stroke="#0D0D0D" stroke-width="1.5" stroke-linecap="round" stroke-linejoin="round" />
    <path d="M156.909 159.977C156.161 161.664 155.303 163.297 154.336 164.869C153.291 166.412 154.354 167.001 155.809 165.486C157.419 163.611 158.886 161.617 160.201 159.525" stroke="#0D0D0D" stroke-width="1.5" stroke-linecap="round" stroke-linejoin="round" />
    <path d="M158.784 161.651C158.34 162.924 157.83 164.171 157.257 165.391C156.45 167.054 157.568 167.53 158.8 165.842C160.004 164.051 161.053 162.16 161.935 160.19" stroke="#0D0D0D" stroke-width="1.5" stroke-linecap="round" stroke-linejoin="round" />
    <path d="M161.08 161.948C160.896 162.814 160.666 163.67 160.391 164.513C159.789 166.205 160.676 166.413 161.766 164.703C162.856 162.993 163.785 161.164 164.711 159.383C165.89 157.145 166.81 155.118 167.845 152.604" stroke="#0D0D0D" stroke-width="1.5" stroke-linecap="round" stroke-linejoin="round" />
    <path d="M156.75 155.344C150.91 158.145 150.147 156.969 154.389 153.874C155.994 152.644 157.287 151.055 158.167 149.235" stroke="#0D0D0D" stroke-width="1.5" stroke-linecap="round" stroke-linejoin="round" />
    <path d="M46.0413 126.064L45.8988 126.467L41.8613 124.971L43.3575 120.934L47.395 122.43L47.2563 122.8" stroke="#0D0D0D" stroke-width="1.5" stroke-linecap="round" stroke-linejoin="round" />
    <path d="M46.92 123.689L46.3975 125.137" stroke="#0D0D0D" stroke-width="1.5" stroke-linecap="round" stroke-linejoin="round" />
    <path d="M42.5188 125.215L8.25751 155.204" stroke="#0D0D0D" stroke-width="1.5" stroke-linecap="round" stroke-linejoin="round" />
    <path d="M78.91 93.3612L46.2175 121.994" stroke="#0D0D0D" stroke-width="1.5" stroke-linecap="round" stroke-linejoin="round" />
    <path d="M9.84877 156.272C9.67027 156.606 9.39689 156.879 9.06321 157.057C8.72951 157.235 8.35051 157.31 7.97409 157.274C7.59768 157.236 7.24078 157.087 6.94853 156.847C6.65627 156.607 6.44178 156.286 6.33217 155.924C6.22257 155.562 6.22278 155.176 6.33277 154.814C6.44277 154.452 6.65761 154.131 6.95012 153.891C7.24264 153.651 7.59969 153.504 7.97614 153.466C8.35259 153.43 8.73152 153.505 9.06502 153.684C9.51128 153.924 9.84423 154.331 9.99111 154.816C10.138 155.301 10.0868 155.825 9.84877 156.272Z" stroke="#0D0D0D" stroke-width="1.5" stroke-linecap="round" stroke-linejoin="round" />
    <path d="M80.5962 94.2637C80.4177 94.5972 80.1444 94.8702 79.8106 95.0483C79.477 95.2265 79.098 95.3016 78.7216 95.2644C78.3451 95.2271 77.9882 95.079 77.696 94.8389C77.4037 94.5987 77.1892 94.2774 77.0796 93.9154C76.97 93.5534 76.9702 93.167 77.0802 92.805C77.1902 92.4431 77.4051 92.122 77.6976 91.8822C77.9901 91.6423 78.3471 91.4947 78.7236 91.4578C79.1001 91.421 79.479 91.4965 79.8125 91.675C80.2587 91.9152 80.5917 92.3225 80.7386 92.8076C80.8855 93.2927 80.8342 93.8162 80.5962 94.2637Z" stroke="#0D0D0D" stroke-width="1.5" stroke-linecap="round" stroke-linejoin="round" />
    <path d="M233.419 101.531L232.849 105.046C230.145 105.007 227.449 104.785 224.775 104.381C216.865 103.105 208.554 100.631 208.767 99.2987C208.981 97.9662 217.672 98.3087 225.559 99.5837C228.224 100.038 230.85 100.689 233.419 101.531Z" stroke="#0D0D0D" stroke-width="1.5" stroke-linecap="round" stroke-linejoin="round" />
    <path d="M226.555 99.755L225.751 104.528" stroke="#0D0D0D" stroke-width="1.5" stroke-linecap="round" stroke-linejoin="round" />
    <path d="M212.188 47.5262C204.755 42.7762 195.208 44.415 190.861 51.1837C189.343 53.5582 188.605 56.3479 188.75 59.1625L183 63.4375L190.089 64.7425C191.449 67.7542 193.656 70.3047 196.441 72.0825C203.875 76.8325 213.421 75.1937 217.768 68.425C222.114 61.6562 219.625 52.2762 212.188 47.5262Z" stroke="#0D0D0D" stroke-width="1.5" stroke-linecap="round" stroke-linejoin="round" />
    <path d="M203.188 61.5612C203.496 60.6362 204.063 60.0612 205.729 58.8787C209.254 56.36 208.498 53.5775 206.394 52.7987C206.02 52.6604 205.62 52.6062 205.224 52.6401C204.826 52.674 204.443 52.795 204.098 52.9946C203.753 53.1942 203.456 53.4675 203.229 53.795C203.001 54.1224 202.85 54.4959 202.784 54.8887" stroke="#0D0D0D" stroke-width="1.5" stroke-linecap="round" stroke-linejoin="round" />
    <path d="M202.903 64.9337C202.834 65.1227 202.691 65.2764 202.509 65.361C202.326 65.4456 202.118 65.4542 201.929 65.385C201.74 65.3157 201.586 65.1742 201.501 64.9916C201.416 64.809 201.409 64.6002 201.478 64.4112C201.546 64.2222 201.689 64.0686 201.871 63.984C202.054 63.8994 202.263 63.8907 202.451 63.96C202.64 64.0292 202.794 64.1707 202.879 64.3534C202.964 64.536 202.971 64.7447 202.903 64.9337Z" stroke="#0D0D0D" stroke-width="1.5" stroke-linecap="round" stroke-linejoin="round" />
    <path d="M151.035 53.25C151.236 45.5125 149.135 45.3 149.468 42.1825C149.561 41.3805 149.816 40.6056 150.216 39.9045C150.616 39.2034 151.155 38.5904 151.798 38.1024C152.441 37.6144 153.176 37.2614 153.96 37.0646C154.743 36.8679 155.558 36.8315 156.355 36.9575C157.995 37.1775 159.488 38.0209 160.523 39.3122C161.556 40.6036 162.054 42.2439 161.911 43.8925C161.565 47.1425 159.385 46.6712 157.993 54.2L151.035 53.25Z" stroke="#0D0D0D" stroke-width="1.5" stroke-linecap="round" stroke-linejoin="round" />
    <path d="M157.566 59.3775L150.346 58.38L150.726 54.9125L157.945 55.91L157.566 59.3775Z" stroke="#0D0D0D" stroke-width="1.5" stroke-linecap="round" stroke-linejoin="round" />
    <path d="M155.144 41.8975L153.644 41.7075C153.456 41.6792 153.265 41.689 153.081 41.7362C152.898 41.7835 152.725 41.8672 152.574 41.9824C152.424 42.0976 152.298 42.242 152.204 42.407C152.11 42.5719 152.05 42.754 152.029 42.9425C151.99 43.3321 152.104 43.7216 152.349 44.0277C152.593 44.334 152.946 44.5326 153.335 44.5812L157.634 45.1512C157.821 45.1795 158.013 45.1697 158.196 45.1225C158.38 45.0752 158.553 44.9915 158.703 44.8762C158.854 44.761 158.979 44.6166 159.073 44.4516C159.166 44.2867 159.226 44.1046 159.248 43.9162C159.286 43.5266 159.173 43.1371 158.928 42.8309C158.684 42.5247 158.33 42.3261 157.941 42.2775L157.254 42.2062C157.066 42.178 156.875 42.1877 156.691 42.235C156.508 42.2822 156.335 42.366 156.184 42.4811C156.034 42.5964 155.908 42.7407 155.814 42.9057C155.72 43.0706 155.66 43.2527 155.639 43.4412L154.523 53.725" stroke="#0D0D0D" stroke-width="1.5" stroke-linecap="round" stroke-linejoin="round" />
    <path d="M208.126 145.846L226.271 155.892L220.951 165.486L201.43 154.705" stroke="#0D0D0D" stroke-width="1.5" stroke-linecap="round" stroke-linejoin="round" />
    <path d="M216.201 161.354L220.239 154.064L224.134 156.225L220.096 163.515L216.201 161.354Z" stroke="#0D0D0D" stroke-width="1.5" stroke-linecap="round" stroke-linejoin="round" />
    <path d="M211.19 158.576L215.228 151.285L219.123 153.446L215.085 160.736L211.19 158.576Z" stroke="#0D0D0D" stroke-width="1.5" stroke-linecap="round" stroke-linejoin="round" />
    <path d="M206.18 155.821L210.216 148.53L214.111 150.691L210.098 157.959L206.18 155.821Z" stroke="#0D0D0D" stroke-width="1.5" stroke-linecap="round" stroke-linejoin="round" />
    <path d="M205.491 145.894L209.124 147.912L205.088 155.204L201.193 153.042L205.135 145.917" stroke="#0D0D0D" stroke-width="1.5" stroke-linecap="round" stroke-linejoin="round" />
    <path d="M198.057 146.868L198.509 146.06" stroke="#0D0D0D" stroke-width="1.5" stroke-linecap="round" stroke-linejoin="round" />
    <path d="M203.663 145.941L200.409 151.831" stroke="#0D0D0D" stroke-width="1.5" stroke-linecap="round" stroke-linejoin="round" />
    <path d="M118.523 61.87L119.069 65.0525" stroke="#0D0D0D" stroke-width="1.5" stroke-linecap="round" stroke-linejoin="round" />
    <path d="M116.622 68.5437L113.464 69.09" stroke="#0D0D0D" stroke-width="1.5" stroke-linecap="round" stroke-linejoin="round" />
    <path d="M125.742 66.9287L122.584 67.4987" stroke="#0D0D0D" stroke-width="1.5" stroke-linecap="round" stroke-linejoin="round" />
    <path d="M120.684 74.1487L120.114 70.99" stroke="#0D0D0D" stroke-width="1.5" stroke-linecap="round" stroke-linejoin="round" />
    <path d="M120.114 70.99C119.975 70.2034 119.529 69.504 118.875 69.0455C118.221 68.5869 117.412 68.4064 116.625 68.5437C117.412 68.4047 118.112 67.9589 118.57 67.3042C119.029 66.6497 119.209 65.8397 119.071 65.0525C119.21 65.8394 119.655 66.539 120.309 66.9979C120.963 67.4567 121.773 67.6372 122.56 67.5C121.773 67.639 121.074 68.0846 120.615 68.739C120.156 69.3932 119.976 70.2029 120.114 70.99Z" stroke="#0D0D0D" stroke-width="1.5" stroke-linecap="round" stroke-linejoin="round" />
    <path d="M108.975 179.375C108.244 181.367 107.194 183.229 105.865 184.884C104.904 185.9 103.727 186.686 102.421 187.187C96.965 189.437 89.5788 200.104 87.4113 197.091C86.7963 196.235 88.4825 191.915 90.6175 187.116C92.1388 183.697 95.1538 178.544 97.6 174.007C100.963 176.591 104.842 178.422 108.975 179.375Z" stroke="#0D0D0D" stroke-width="1.5" stroke-linecap="round" stroke-linejoin="round" />
    <path d="M188.866 135.277L234.321 134.305L234.559 145.276L197.606 146.06" stroke="#0D0D0D" stroke-width="1.5" stroke-linecap="round" stroke-linejoin="round" />
    <path d="M228.361 144.089L228.195 135.752L232.659 135.657L232.825 143.994L228.361 144.089Z" stroke="#0D0D0D" stroke-width="1.5" stroke-linecap="round" stroke-linejoin="round" />
    <path d="M222.661 144.207L222.471 135.871L226.936 135.776L227.103 144.112L222.661 144.207Z" stroke="#0D0D0D" stroke-width="1.5" stroke-linecap="round" stroke-linejoin="round" />
    <path d="M216.938 144.326L216.748 135.99L221.213 135.895L221.403 144.231L216.938 144.326Z" stroke="#0D0D0D" stroke-width="1.5" stroke-linecap="round" stroke-linejoin="round" />
    <path d="M211.214 144.445L211.024 136.132L215.489 136.037L215.679 144.35L211.214 144.445Z" stroke="#0D0D0D" stroke-width="1.5" stroke-linecap="round" stroke-linejoin="round" />
    <path d="M205.491 144.587L205.325 136.251L209.765 136.156L209.955 144.469L205.491 144.587Z" stroke="#0D0D0D" stroke-width="1.5" stroke-linecap="round" stroke-linejoin="round" />
    <path d="M150.227 105.569C146.786 111.552 144.294 118.033 142.841 124.781" stroke="#0D0D0D" stroke-width="1.5" stroke-linecap="round" stroke-linejoin="round" />
    <path d="M89.5487 159.501L85.8438 167.647" stroke="#0D0D0D" stroke-width="1.5" stroke-linecap="round" stroke-linejoin="round" />
    <path d="M91.7575 165.415L83.6125 161.71" stroke="#0D0D0D" stroke-width="1.5" stroke-linecap="round" stroke-linejoin="round" />
    <path d="M116.79 118.632L118.475 117.727" stroke="#0D0D0D" stroke-width="1.5" stroke-linecap="round" stroke-linejoin="round" />
    <path d="M144.456 107.279L137.593 107.825L136.239 114.403" stroke="#0D0D0D" stroke-width="1.5" stroke-linecap="round" stroke-linejoin="round" />
</svg>