<svg width="30" height="22" viewBox="0 0 30 22" fill="none" xmlns="http://www.w3.org/2000/svg">
    <path
        d="M10.186 18.4635C9.55067 19.3967 8.86911 20.2975 8.14383 21.1625C2.87429 21.0126 0.875 17.5924 0.875 17.5924C0.949899 12.7463 2.12425 7.98054 4.30949 3.6545C6.23036 2.15178 8.57091 1.28343 11.0071 1.16968L11.7211 2.81909"
        stroke="#0D0D0D" stroke-linecap="round" stroke-linejoin="round" />
    <path
        d="M6.37305 4.29005C8.22602 3.48153 10.1902 2.95678 12.1995 2.73347C13.061 2.62033 13.93 2.57497 14.7986 2.5978C15.6676 2.5797 16.5366 2.62983 17.3977 2.74775C19.407 2.97106 21.3712 3.49581 23.2242 4.30433M17.8904 2.81201L18.6044 1.1626C21.043 1.28251 23.3838 2.15844 25.302 3.66885C27.4802 7.99174 28.6496 12.7523 28.7222 17.5924C28.7222 17.5924 26.7229 21.0127 21.4534 21.1626C20.7275 20.2906 20.0459 19.3826 19.4112 18.4421M24.0239 16.3715C22.1118 17.5223 20.0296 18.3633 17.8547 18.8634C16.8482 19.0617 15.8243 19.1574 14.7986 19.149V19.149C13.7729 19.1574 12.749 19.0617 11.7426 18.8634C9.56759 18.3633 7.48544 17.5223 5.57333 16.3715M10.4073 10.2165C10.0608 10.2249 9.7199 10.3057 9.40649 10.4537C9.09307 10.6018 8.81409 10.8137 8.58747 11.076C8.36085 11.3382 8.19161 11.645 8.09061 11.9766C7.98962 12.3081 7.9591 12.6572 8.00104 13.0012C8.0299 13.6128 8.29009 14.1905 8.72891 14.6173C9.16773 15.0442 9.75239 15.2884 10.3645 15.3004C10.7129 15.2925 11.0559 15.2124 11.3717 15.0651C11.6876 14.9179 11.9696 14.7068 12.1997 14.4451C12.4299 14.1834 12.6032 13.8768 12.7089 13.5448C12.8146 13.2127 12.8502 12.8623 12.8136 12.5157C12.7727 11.901 12.5029 11.3239 12.0574 10.8983C11.612 10.4727 11.0233 10.2294 10.4073 10.2165V10.2165Z"
        stroke="#0D0D0D" stroke-linecap="round" stroke-linejoin="round" />
    <path
        d="M19.1898 10.2163C19.5363 10.2247 19.8772 10.3055 20.1907 10.4535C20.5041 10.6016 20.7831 10.8135 21.0097 11.0758C21.2363 11.338 21.4055 11.6448 21.5065 11.9764C21.6075 12.3079 21.638 12.657 21.5961 13.001C21.5672 13.6126 21.3071 14.1903 20.8682 14.6172C20.4294 15.044 19.8448 15.2882 19.2327 15.3002C18.8843 15.2923 18.5413 15.2122 18.2254 15.0649C17.9095 14.9177 17.6276 14.7066 17.3974 14.4449C17.1673 14.1832 16.9939 13.8767 16.8882 13.5446C16.7826 13.2125 16.7469 12.8621 16.7835 12.5155C16.8245 11.9008 17.0943 11.3237 17.5397 10.8981C17.9851 10.4725 18.5739 10.2292 19.1898 10.2163Z"
        stroke="#0D0D0D" stroke-linecap="round" stroke-linejoin="round" />
</svg>