<svg width="100" height="100" viewBox="0 0 100 100" fill="none" xmlns="http://www.w3.org/2000/svg">
<path d="M58.448 71.7615L57.9635 69.111L69.2865 67.0215L69.771 69.6715L58.448 71.7615Z" fill="#C1FBA4"/>
<path d="M68.356 69.529L66.5795 67.5155L76.1455 59.08L77.9215 61.0935L68.356 69.529Z" fill="#C1FBA4"/>
<path d="M77.9501 64.77L79.1091 63.0125L77.3231 61.6065L76.3831 62.452L77.9501 64.77Z" fill="#0D0D0D"/>
<path d="M84.087 66.9L82.587 70.35C82.1345 71.401 81.355 72.278 80.364 72.85L87.85 78.6865L92.258 73.253L84.087 66.9Z" fill="#0D0D0D"/>
<path d="M76.193 40.6035C77.4405 40.7777 78.707 40.4611 79.7255 39.7205C80.7445 38.9798 81.436 37.8728 81.655 36.6325C80.1175 36.1379 78.497 35.9562 76.888 36.0982C75.2795 36.2401 73.7155 36.7028 72.2885 37.459C72.5955 38.2864 73.1205 39.0154 73.808 39.5689C74.495 40.1224 75.3195 40.4799 76.193 40.6035Z" fill="#0D0D0D"/>
<path d="M47.571 38.7035L40.6555 33.327C39.6613 35.4344 38.2225 37.3016 36.438 38.8L45.338 45.82L49.119 41.137L47.571 38.7035Z" fill="#0D0D0D"/>
<path d="M53.1185 46.265L49.7001 50.977C49.9407 51.419 50.2205 51.8385 50.536 52.2305L53.1185 46.265Z" fill="#0D0D0D"/>
<path d="M51.371 36.0435L52.729 35.0845C52.2985 35.1126 51.8665 35.103 51.4375 35.056L51.371 36.0435Z" fill="#0D0D0D"/>
<path d="M60.4045 40.993C60.5045 40.2271 60.3305 39.4505 59.9135 38.8004C59.496 38.1503 58.863 37.6685 58.125 37.44C58.2195 37.1688 58.2485 36.8791 58.2105 36.5945C57.5835 32.016 56.6335 29.1945 55.066 27.58C54.002 26.468 51.827 26.649 50.535 28.273C49.252 29.8995 49.5745 32.045 49.566 32.223C49.6962 30.6248 50.442 29.1396 51.6465 28.081C51.9835 27.8042 52.38 27.6092 52.805 27.511C52.7385 28.9555 53.888 31.2445 55.275 30.6745C56.2025 30.296 56.314 31.9745 54.4865 31.9745C53.9925 35.9355 54.1445 40.4745 55.9685 44.172L56.263 44.732C57.1595 46.3648 58.441 47.754 59.9965 48.779C61.0295 48.8331 62.0415 48.4746 62.8105 47.7825C63.579 47.0903 64.041 46.1212 64.0955 45.0882C64.1495 44.0553 63.791 43.0432 63.099 42.2745C62.4065 41.5058 61.4375 41.0436 60.4045 40.9895V40.993Z" fill="#0D0D0D"/>
<path d="M24.8675 29.242C24.5678 29.2335 24.2723 29.3141 24.0184 29.4736C23.7644 29.6331 23.5635 29.8643 23.441 30.1379C23.3184 30.4116 23.2798 30.7155 23.33 31.0111C23.3802 31.3067 23.5169 31.5808 23.7228 31.7987C23.9288 32.0167 24.1948 32.1686 24.4871 32.2354C24.7794 32.3021 25.085 32.2807 25.3651 32.1738C25.6453 32.0669 25.8874 31.8793 26.0609 31.6348C26.2345 31.3903 26.3316 31.0998 26.34 30.8C26.3511 30.3982 26.2022 30.0085 25.9261 29.7164C25.65 29.4243 25.2693 29.2537 24.8675 29.242Z" fill="#0D0D0D"/>
<path d="M26.1025 22.2695C26.508 21.6539 26.7559 20.948 26.8247 20.2141C26.8934 19.4801 26.7808 18.7405 26.4967 18.0603C26.2126 17.3801 25.7657 16.7801 25.1954 16.313C24.6251 15.846 23.9487 15.5262 23.2259 15.3818C22.503 15.2374 21.7557 15.2727 21.0497 15.4848C20.3437 15.6969 19.7006 16.0791 19.177 16.598C18.6533 17.1168 18.2651 17.7564 18.0466 18.4604C17.828 19.1644 17.7858 19.9114 17.9235 20.6355C17.9348 20.7124 17.9507 20.7885 17.971 20.8635L20.1555 20.4555C20.1324 20.3807 20.1135 20.3045 20.099 20.2275C20.0409 19.9315 20.042 19.6269 20.1022 19.3312C20.1624 19.0356 20.2805 18.7548 20.4497 18.505C20.619 18.2553 20.836 18.0415 21.0882 17.876C21.3405 17.7105 21.623 17.5965 21.9195 17.5407C22.216 17.4849 22.5206 17.4884 22.8157 17.5509C23.1109 17.6134 23.3908 17.7337 23.6392 17.9048C23.8876 18.076 24.0998 18.2947 24.2633 18.5482C24.4268 18.8017 24.5386 19.0851 24.592 19.382C24.792 20.4725 24.1995 21.3095 23.4615 22.232C22.977 22.8097 22.7115 23.5396 22.7115 24.2935C22.7144 25.4198 22.8486 26.5419 23.1115 27.637L25.3615 27.2095C25.1201 26.2023 25.0147 25.1673 25.048 24.132C25.1905 23.4095 25.713 22.8585 26.1025 22.2695Z" fill="#0D0D0D"/>
<path d="M49.889 30.0305C48.4545 27.9331 47.2685 25.6761 46.355 23.305C44.5613 23.479 42.8431 24.1146 41.368 25.15C42.603 29.2725 44.683 34.355 49.118 41.1375" stroke="#0D0D0D" stroke-width="1.5" stroke-linecap="round" stroke-linejoin="round"/>
<path d="M42.888 22.279C42.6217 20.8931 42.5196 19.4807 42.584 18.071C42.5557 17.3425 42.606 16.6131 42.734 15.8955C43.084 13.927 43.5635 14.119 43.722 16.019C44.1095 20.673 45.222 22.2125 45.631 23.4095" stroke="#0D0D0D" stroke-width="1.5" stroke-linecap="round" stroke-linejoin="round"/>
<path d="M42.65 16.494C42.3315 15.8222 41.9189 15.1993 41.4245 14.644C41.2745 14.5 40.9245 14.4855 41.358 15.689C41.451 15.946 41.8225 17.057 41.9375 17.456C42.2042 18.252 42.4199 19.0642 42.5835 19.8875" stroke="#0D0D0D" stroke-width="1.5" stroke-linecap="round" stroke-linejoin="round"/>
<path d="M42.717 21.1675C42.6505 22.108 41.198 20.6535 40.513 20.1035C39.8965 19.6085 39.013 19.294 40.2565 21.0915C40.9934 22.2383 41.5508 23.4909 41.9095 24.806" stroke="#0D0D0D" stroke-width="1.5" stroke-linecap="round" stroke-linejoin="round"/>
<path d="M78.6245 65.758L76.3831 62.452" stroke="#0D0D0D" stroke-width="1.5" stroke-linecap="round" stroke-linejoin="round"/>
<path d="M51.45 35.0315C51.45 35.0315 51.345 36.3475 51.2405 38.276C51.0315 38.5705 50.832 38.865 50.623 39.176" stroke="#0D0D0D" stroke-width="1.5" stroke-linecap="round" stroke-linejoin="round"/>
<path d="M52.7295 35.113L51.375 36.032" stroke="#0D0D0D" stroke-width="1.5" stroke-linecap="round" stroke-linejoin="round"/>
<path d="M67.0545 67.088L59.4645 58.719" stroke="#0D0D0D" stroke-width="1.5" stroke-linecap="round" stroke-linejoin="round"/>
<path d="M53.109 46.2555L50.535 52.221" stroke="#0D0D0D" stroke-width="1.5" stroke-linecap="round" stroke-linejoin="round"/>
<path d="M72.6779 62.129C69.7289 57.3895 65.4464 53.6255 60.3669 51.3095" stroke="#0D0D0D" stroke-width="1.5" stroke-linecap="round" stroke-linejoin="round"/>
<path d="M58.7535 68.9655L55.066 55.584" stroke="#0D0D0D" stroke-width="1.5" stroke-linecap="round" stroke-linejoin="round"/>
<path d="M69.543 68.484L69.771 69.6715L58.448 71.7615L57.9635 69.111L66.5795 67.525" stroke="#0D0D0D" stroke-width="1.5" stroke-linecap="round" stroke-linejoin="round"/>
<path d="M59.987 48.792C61.0045 48.819 61.9925 48.4477 62.7405 47.7573C63.4885 47.0668 63.9375 46.1117 63.992 45.0952C64.0465 44.0786 63.702 43.081 63.032 42.3147C62.362 41.5483 61.419 41.0737 60.4045 40.992C60.5045 40.226 60.3305 39.4495 59.9135 38.7994C59.496 38.1493 58.863 37.6674 58.125 37.439C58.4325 36.5475 57.4815 30.945 55.769 28.444C54.162 26.097 51.813 26.6465 50.5255 28.272C49.238 29.8975 49.565 32.0435 49.5565 32.222" stroke="#0D0D0D" stroke-width="1.5" stroke-linecap="round" stroke-linejoin="round"/>
<path d="M77.9501 64.77L84.4196 54.9285C85.6541 52.943 85.6066 52.316 86.1576 50.9485C88.7416 49.5425 94.6026 47.8895 97.5001 47.5095C95.3721 50.8345 90.3851 52.8005 88.4186 56.9235L82.5766 70.3365C82.2311 71.131 81.6986 71.83 81.0241 72.3735C80.3501 72.917 79.5541 73.2895 78.7046 73.4585C77.8546 73.6275 76.9771 73.588 76.1461 73.344C75.3146 73.0995 74.5551 72.6575 73.9321 72.056L69.9041 68.171" stroke="#0D0D0D" stroke-width="1.5" stroke-linecap="round" stroke-linejoin="round"/>
<path d="M68.356 69.529L66.5795 67.5155L76.1455 59.08L77.9215 61.0935L68.356 69.529Z" stroke="#0D0D0D" stroke-width="1.5" stroke-linecap="round" stroke-linejoin="round"/>
<path d="M25.75 44.6405C26.7855 44.536 25.064 42.894 24.781 42.3905C24.3985 41.708 23.993 40.9175 25.7785 42.172C27.225 43.085 28.7254 43.9097 30.2715 44.6415" stroke="#0D0D0D" stroke-width="1.5" stroke-linecap="round" stroke-linejoin="round"/>
<path d="M60.272 71.4195L61.06 74.2505C61.574 76.0695 62.777 77.6165 64.4135 78.563C66.0475 79.513 80.971 86.6755 80.971 86.6755C84.9515 88.9255 86.5755 94.028 89.7485 96.384C89.568 93.4675 88.314 87.502 87.0885 84.834C85.781 84.199 85.1445 84.1965 83.327 82.8965L69.068 72.8745L68.2515 69.9485" stroke="#0D0D0D" stroke-width="1.5" stroke-linecap="round" stroke-linejoin="round"/>
<path d="M53.109 46.2555C52.568 46.9585 49.3235 51.448 46.754 54.995C46.154 55.823 45.2843 56.416 44.2945 56.6725C43.3047 56.929 42.2565 56.8325 41.33 56.4L27.917 49.533L30.6335 43.9L42.5835 49.2385" stroke="#0D0D0D" stroke-width="1.5" stroke-linecap="round" stroke-linejoin="round"/>
<path d="M58.2865 47.4145C59.176 48.286 60.205 49.0027 61.331 49.535C60.071 52.435 57.915 54.3125 55.047 55.603C51.7685 54.2305 50.871 52.7625 49.6875 50.9495" stroke="#0D0D0D" stroke-width="1.5" stroke-linecap="round" stroke-linejoin="round"/>
<path d="M75.5946 59.555C69.7096 51.667 63.4736 50.4185 61.3311 49.535" stroke="#0D0D0D" stroke-width="1.5" stroke-linecap="round" stroke-linejoin="round"/>
<path d="M50.6205 39.1785C50.6205 39.1785 52.1025 45.4195 58.2865 47.4145C57.333 46.4742 56.546 45.3788 55.959 44.175C54.1305 40.4825 53.983 35.939 54.477 31.978H54.724C56.224 31.8925 56.196 30.2955 55.2655 30.678C53.878 31.2465 52.7295 28.9585 52.796 27.515C52.3715 27.6138 51.975 27.8086 51.637 28.0845C50.9345 28.6997 50.3835 29.4687 50.0275 30.3318C49.671 31.1948 49.5188 32.1285 49.5825 33.06C49.7595 34.2675 50.591 35.2325 52.7295 35.1145" stroke="#0D0D0D" stroke-width="1.5" stroke-linecap="round" stroke-linejoin="round"/>
<path d="M50.6205 39.1785C49.7275 40.5285 42.7645 48.7825 41.8335 50.293" stroke="#0D0D0D" stroke-width="1.5" stroke-linecap="round" stroke-linejoin="round"/>
<path d="M22.2076 45.7235C21.7516 45.7805 20.8116 45.971 20.5356 46.0275C19.2821 46.2855 19.4436 46.6165 19.6431 46.6355C20.4501 46.712 21.7611 46.7025 22.5116 46.797C23.7181 46.9495 26.0456 47.1675 26.9576 47.709" stroke="#0D0D0D" stroke-width="1.5" stroke-linecap="round" stroke-linejoin="round"/>
<path d="M22.445 46.7875C22.245 46.8635 22.065 46.93 21.9795 46.968C20.7825 47.424 21.0015 47.7305 21.2005 47.718C22.0085 47.6705 23.3005 47.4335 24.06 47.4045C24.9734 47.3875 25.8863 47.4574 26.7865 47.6135" stroke="#0D0D0D" stroke-width="1.5" stroke-linecap="round" stroke-linejoin="round"/>
<path d="M57.1465 19.496C57.1315 19.7403 57.0445 19.9747 56.896 20.1694C56.748 20.3642 56.5455 20.5107 56.314 20.5903C56.0825 20.6699 55.8325 20.6791 55.596 20.6167C55.359 20.5543 55.1465 20.4232 54.984 20.2398C54.822 20.0564 54.718 19.829 54.685 19.5865C54.652 19.344 54.692 19.0971 54.7995 18.8771C54.9065 18.6572 55.077 18.474 55.2885 18.3508C55.5 18.2276 55.743 18.1699 55.9875 18.185C56.3145 18.2061 56.62 18.3558 56.8375 18.6014C57.0545 18.8471 57.1655 19.1687 57.1465 19.496Z" stroke="#0D0D0D" stroke-width="1.5" stroke-linecap="round" stroke-linejoin="round"/>
<path d="M89.986 49.381C90.1695 47.6055 89.9575 45.8114 89.365 44.1276C88.773 42.4437 87.815 40.9119 86.561 39.642C85.3065 38.3721 83.7865 37.3957 82.11 36.7828C80.4335 36.17 78.642 35.9359 76.8645 36.0974C75.087 36.2589 73.367 36.8119 71.8285 37.7168C70.29 38.6217 68.971 39.8561 67.9655 41.3312C66.9605 42.8063 66.295 44.4857 66.0155 46.2487C65.7365 48.0117 65.8515 49.8146 66.3515 51.528" stroke="#0D0D0D" stroke-width="1.5" stroke-linecap="round" stroke-linejoin="round"/>
<path d="M77.1331 60.2C78.4926 60.2965 79.8581 60.158 81.1706 59.7915" stroke="#0D0D0D" stroke-width="1.5" stroke-linecap="round" stroke-linejoin="round"/>
<path d="M77.5414 30.9615C76.5889 30.8299 75.6194 30.9835 74.7539 31.403C73.8889 31.8225 73.168 32.4889 72.6815 33.3182C72.195 34.1475 71.9654 35.1023 72.0214 36.062C72.0779 37.0217 72.417 37.9433 72.997 38.7102C73.5765 39.4771 74.3705 40.055 75.2785 40.3708C76.1865 40.6866 77.168 40.7262 78.0985 40.4845C79.029 40.2429 79.8664 39.7308 80.5064 39.013C81.1459 38.2953 81.5584 37.404 81.6914 36.452C81.8679 35.1737 81.5305 33.8776 80.7525 32.8482C79.9745 31.8188 78.8194 31.1402 77.5414 30.9615Z" stroke="#0D0D0D" stroke-width="1.5" stroke-linecap="round" stroke-linejoin="round"/>
<path d="M41.6245 16.4655C40.4132 13.3754 38.4612 10.6303 35.9401 8.47155C33.4191 6.3128 30.4062 4.80655 27.1665 4.08529C23.9268 3.36404 20.5595 3.44986 17.3607 4.3352C14.1619 5.22055 11.2297 6.8783 8.82185 9.16265C6.41405 11.447 4.60437 14.288 3.55203 17.4358C2.49969 20.5836 2.23691 23.9417 2.78679 27.2149C3.33667 30.488 4.68238 33.576 6.70555 36.2071C8.72875 38.8382 11.3674 40.9319 14.3896 42.304C17.9903 43.9103 21.9759 44.4509 25.8745 43.862" stroke="#0D0D0D" stroke-width="1.5" stroke-linecap="round" stroke-linejoin="round"/>
<path d="M42.4795 28.4535C41.8641 31.1149 40.7149 33.6237 39.1017 35.828C37.4885 38.0324 35.4447 39.8865 33.0941 41.278C31.4696 42.237 29.7168 42.9599 27.8885 43.425" stroke="#0D0D0D" stroke-width="1.5" stroke-linecap="round" stroke-linejoin="round"/>
<path d="M29.237 9.34099C26.6114 8.16979 23.7164 7.73534 20.8627 8.08429C18.009 8.43324 15.304 9.55239 13.0379 11.3217C10.7719 13.0911 9.03019 15.4439 7.99959 18.1278C6.96899 20.8117 6.68839 23.7256 7.18789 26.5568C7.68739 29.3881 8.94809 32.03 10.8349 34.1993C12.7217 36.3685 15.1633 37.9833 17.8981 38.8704C20.6328 39.7575 23.5574 39.8835 26.3583 39.2349C29.1591 38.5862 31.7306 37.1874 33.797 35.1885C41.7545 27.529 39.583 13.95 29.237 9.34099Z" stroke="#0D0D0D" stroke-width="1.5" stroke-linecap="round" stroke-linejoin="round"/>
<path d="M14.817 57.0375L19.035 60.381L23.338 53.779" stroke="#0D0D0D" stroke-width="1.5" stroke-linecap="round" stroke-linejoin="round"/>
<path d="M51.751 59.973L47.647 60.495" stroke="#0D0D0D" stroke-width="1.5" stroke-linecap="round" stroke-linejoin="round"/>
<path d="M49.9555 62.2905L49.433 58.1775" stroke="#0D0D0D" stroke-width="1.5" stroke-linecap="round" stroke-linejoin="round"/>
<path d="M26.34 30.8C26.3316 31.0998 26.2345 31.3903 26.0609 31.6348C25.8874 31.8793 25.6453 32.0669 25.3651 32.1738C25.085 32.2807 24.7794 32.3021 24.4871 32.2354C24.1948 32.1686 23.9288 32.0167 23.7228 31.7987C23.5169 31.5808 23.3802 31.3067 23.33 31.0111C23.2798 30.7155 23.3184 30.4116 23.441 30.1379C23.5635 29.8643 23.7644 29.6331 24.0184 29.4736C24.2723 29.3141 24.5678 29.2335 24.8675 29.242C25.269 29.2544 25.6493 29.4253 25.9252 29.7172C26.2011 30.0092 26.3503 30.3985 26.34 30.8Z" stroke="#0D0D0D" stroke-width="1.5" stroke-linecap="round" stroke-linejoin="round"/>
<path d="M26.093 22.2695C26.4984 21.6539 26.7464 20.948 26.8151 20.2141C26.8838 19.4801 26.7712 18.7405 26.4871 18.0603C26.203 17.3801 25.7561 16.7801 25.1858 16.313C24.6155 15.846 23.9392 15.5262 23.2163 15.3818C22.4934 15.2374 21.7461 15.2727 21.0401 15.4848C20.3341 15.6969 19.691 16.0791 19.1674 16.598C18.6437 17.1168 18.2556 17.7564 18.037 18.4604C17.8185 19.1644 17.7762 19.9114 17.914 20.6355C17.9252 20.7124 17.9411 20.7885 17.9615 20.8635L20.1465 20.4555C20.1227 20.3808 20.1036 20.3047 20.0895 20.2275C20.0314 19.9315 20.0324 19.6269 20.0926 19.3312C20.1528 19.0356 20.2709 18.7548 20.4402 18.505C20.6094 18.2553 20.8264 18.0415 21.0787 17.876C21.3309 17.7105 21.6134 17.5965 21.9099 17.5407C22.2064 17.4849 22.511 17.4884 22.8062 17.5509C23.1013 17.6134 23.3812 17.7337 23.6296 17.9048C23.8781 18.076 24.0902 18.2947 24.2537 18.5482C24.4172 18.8017 24.529 19.0851 24.5825 19.382C24.7825 20.4725 24.19 21.3095 23.452 22.232C22.9674 22.8097 22.7019 23.5396 22.702 24.2935C22.6911 24.6988 22.7089 25.1043 22.755 25.507C22.8105 26.037 23.1105 27.637 23.1105 27.637L25.3605 27.2095C25.332 27.2095 25.0565 25.424 25.0375 25.2245C24.9852 24.8622 24.9852 24.4943 25.0375 24.132C25.181 23.4095 25.7035 22.8585 26.093 22.2695Z" stroke="#0D0D0D" stroke-width="1.5" stroke-linecap="round" stroke-linejoin="round"/>
<path d="M28.382 48.564C27.0518 47.6856 25.6431 46.9324 24.174 46.314C22.9945 45.8828 21.77 45.5864 20.524 45.4305C18.6905 45.2055 18.481 44.712 20.4765 44.4425C21.2107 44.3535 21.9508 44.3218 22.69 44.3475C24.0916 44.3657 25.4869 44.5377 26.851 44.8605" stroke="#0D0D0D" stroke-width="1.5" stroke-linecap="round" stroke-linejoin="round"/>
</svg>
