<svg width="108" height="22" viewBox="0 0 108 22" fill="none" xmlns="http://www.w3.org/2000/svg">
<path d="M6.192 17.136C4.944 17.136 3.856 16.912 2.928 16.464C2 16.016 1.28 15.352 0.768 14.472C0.256 13.576 0 12.48 0 11.184V0H1.992V11.208C1.992 12.584 2.36 13.616 3.096 14.304C3.832 14.992 4.864 15.336 6.192 15.336C7.52 15.336 8.552 14.992 9.288 14.304C10.024 13.616 10.392 12.584 10.392 11.208V0H12.408V11.184C12.408 12.48 12.152 13.576 11.64 14.472C11.128 15.352 10.4 16.016 9.456 16.464C8.528 16.912 7.44 17.136 6.192 17.136Z" fill="white"/>
<path d="M16.1764 16.8V0H18.0724V16.8H16.1764Z" fill="white"/>
<path d="M26.3792 16.8C25.7072 16.8 25.1872 16.616 24.8192 16.248C24.4672 15.88 24.2912 15.376 24.2912 14.736V6.72H20.7632V5.064H24.2912V0.888H26.1872V5.064H30.0272V6.72H26.1872V14.448C26.1872 14.928 26.4192 15.168 26.8832 15.168H29.4992V16.8H26.3792Z" fill="white"/>
<path d="M36.6279 17.136C35.8119 17.136 35.0679 16.992 34.3959 16.704C33.7239 16.416 33.1959 16 32.8119 15.456C32.4279 14.912 32.2359 14.248 32.2359 13.464C32.2359 12.664 32.4279 12.008 32.8119 11.496C33.1959 10.968 33.7239 10.576 34.3959 10.32C35.0679 10.048 35.8199 9.912 36.6519 9.912H40.6119V9.048C40.6119 8.216 40.3639 7.56 39.8679 7.08C39.3879 6.6 38.6679 6.36 37.7079 6.36C36.7639 6.36 36.0279 6.592 35.4999 7.056C34.9719 7.504 34.6119 8.112 34.4199 8.88L32.6439 8.304C32.8359 7.648 33.1399 7.056 33.5559 6.528C33.9719 5.984 34.5239 5.552 35.2119 5.232C35.9159 4.896 36.7559 4.728 37.7319 4.728C39.2359 4.728 40.4039 5.12 41.2359 5.904C42.0679 6.672 42.4839 7.76 42.4839 9.168V14.472C42.4839 14.952 42.7079 15.192 43.1559 15.192H44.2359V16.8H42.5799C42.0519 16.8 41.6279 16.656 41.3079 16.368C40.9879 16.064 40.8279 15.664 40.8279 15.168V15.048H40.5399C40.3639 15.352 40.1239 15.672 39.8199 16.008C39.5319 16.328 39.1319 16.592 38.6199 16.8C38.1079 17.024 37.4439 17.136 36.6279 17.136ZM36.8439 15.504C37.9639 15.504 38.8679 15.176 39.5559 14.52C40.2599 13.848 40.6119 12.912 40.6119 11.712V11.448H36.7239C35.9719 11.448 35.3479 11.616 34.8519 11.952C34.3719 12.272 34.1319 12.76 34.1319 13.416C34.1319 14.072 34.3799 14.584 34.8759 14.952C35.3879 15.32 36.0439 15.504 36.8439 15.504Z" fill="white"/>
<path d="M46.7606 16.8V0H48.7766V14.976H57.2726V16.8H46.7606Z" fill="white"/>
<path d="M65.2644 17.136C64.0804 17.136 63.0324 16.888 62.1204 16.392C61.2244 15.896 60.5204 15.2 60.0084 14.304C59.5124 13.392 59.2644 12.32 59.2644 11.088V10.776C59.2644 9.56 59.5124 8.496 60.0084 7.584C60.5204 6.672 61.2244 5.968 62.1204 5.472C63.0324 4.976 64.0804 4.728 65.2644 4.728C66.4484 4.728 67.4884 4.976 68.3844 5.472C69.2964 5.968 70.0004 6.672 70.4964 7.584C71.0084 8.496 71.2644 9.56 71.2644 10.776V11.088C71.2644 12.32 71.0084 13.392 70.4964 14.304C70.0004 15.2 69.2964 15.896 68.3844 16.392C67.4884 16.888 66.4484 17.136 65.2644 17.136ZM65.2644 15.432C66.5124 15.432 67.5044 15.04 68.2404 14.256C68.9924 13.456 69.3684 12.384 69.3684 11.04V10.824C69.3684 9.48 68.9924 8.416 68.2404 7.632C67.5044 6.832 66.5124 6.432 65.2644 6.432C64.0324 6.432 63.0404 6.832 62.2884 7.632C61.5364 8.416 61.1604 9.48 61.1604 10.824V11.04C61.1604 12.384 61.5364 13.456 62.2884 14.256C63.0404 15.04 64.0324 15.432 65.2644 15.432Z" fill="white"/>
<path d="M74.1004 10.992V10.656C74.1004 9.424 74.3484 8.368 74.8444 7.488C75.3404 6.608 76.0124 5.928 76.8604 5.448C77.7084 4.968 78.6364 4.728 79.6444 4.728C80.8764 4.728 81.8204 4.968 82.4764 5.448C83.1484 5.912 83.6444 6.432 83.9644 7.008H84.3004V5.064H86.1004V19.536C86.1004 20.176 85.9244 20.68 85.5724 21.048C85.2204 21.416 84.7084 21.6 84.0364 21.6H76.0684V19.92H83.5324C84.0124 19.92 84.2524 19.68 84.2524 19.2V14.736H83.9164C83.7244 15.088 83.4524 15.432 83.1004 15.768C82.7484 16.104 82.2924 16.384 81.7324 16.608C81.1724 16.816 80.4764 16.92 79.6444 16.92C78.6364 16.92 77.7084 16.68 76.8604 16.2C76.0124 15.72 75.3404 15.04 74.8444 14.16C74.3484 13.264 74.1004 12.208 74.1004 10.992ZM80.1484 15.24C81.3644 15.24 82.3484 14.856 83.1004 14.088C83.8684 13.32 84.2524 12.264 84.2524 10.92V10.728C84.2524 9.368 83.8684 8.312 83.1004 7.56C82.3484 6.792 81.3644 6.408 80.1484 6.408C78.9484 6.408 77.9564 6.792 77.1724 7.56C76.4044 8.312 76.0204 9.368 76.0204 10.728V10.92C76.0204 12.264 76.4044 13.32 77.1724 14.088C77.9564 14.856 78.9484 15.24 80.1484 15.24Z" fill="white"/>
<path d="M90.0748 16.8V5.064H91.9708V16.8H90.0748ZM91.0348 3.24C90.6188 3.24 90.2668 3.104 89.9788 2.832C89.7068 2.56 89.5708 2.216 89.5708 1.8C89.5708 1.368 89.7068 1.016 89.9788 0.744C90.2668 0.472 90.6188 0.336 91.0348 0.336C91.4508 0.336 91.7948 0.472 92.0668 0.744C92.3388 1.016 92.4748 1.368 92.4748 1.8C92.4748 2.216 92.3388 2.56 92.0668 2.832C91.7948 3.104 91.4508 3.24 91.0348 3.24Z" fill="white"/>
<path d="M101.358 17.136C100.222 17.136 99.1976 16.896 98.2856 16.416C97.3896 15.92 96.6776 15.216 96.1496 14.304C95.6376 13.392 95.3816 12.312 95.3816 11.064V10.8C95.3816 9.536 95.6376 8.456 96.1496 7.56C96.6776 6.648 97.3896 5.952 98.2856 5.472C99.1976 4.976 100.222 4.728 101.358 4.728C102.478 4.728 103.43 4.936 104.214 5.352C105.014 5.768 105.638 6.32 106.086 7.008C106.55 7.696 106.846 8.432 106.974 9.216L105.126 9.6C105.046 9.024 104.854 8.496 104.55 8.016C104.262 7.536 103.854 7.152 103.326 6.864C102.798 6.576 102.15 6.432 101.382 6.432C100.598 6.432 99.8936 6.608 99.2696 6.96C98.6616 7.312 98.1736 7.816 97.8056 8.472C97.4536 9.128 97.2776 9.912 97.2776 10.824V11.04C97.2776 11.952 97.4536 12.736 97.8056 13.392C98.1736 14.048 98.6616 14.552 99.2696 14.904C99.8936 15.256 100.598 15.432 101.382 15.432C102.55 15.432 103.438 15.128 104.046 14.52C104.67 13.912 105.054 13.16 105.198 12.264L107.07 12.672C106.894 13.44 106.574 14.168 106.11 14.856C105.646 15.544 105.014 16.096 104.214 16.512C103.43 16.928 102.478 17.136 101.358 17.136Z" fill="white"/>
</svg>
