<svg width="20" height="20" viewBox="0 0 20 20" fill="none" xmlns="http://www.w3.org/2000/svg">
    <path fill-rule="evenodd" clip-rule="evenodd" d="M8.47792 0.0698228C4.33941 0.82799 1.33341 3.57488 0.212779 7.62285C0.0334348 8.27056 -0.00136789 8.66901 4.0309e-05 10.0615C0.00144851 11.57 0.0264944 11.8075 0.266995 12.5973C0.584947 13.6414 0.948464 14.4863 1.3487 15.1118L1.64381 15.573L1.08938 17.2305C0.784308 18.1421 0.547227 18.9742 0.562416 19.0796C0.577604 19.1849 0.705348 19.3571 0.846168 19.4622C1.10206 19.6529 1.10407 19.6526 2.87971 19.0902L4.65716 18.5271L5.5909 18.9773C8.44704 20.3542 11.648 20.3402 14.421 18.9387C15.4809 18.403 16.081 17.9793 16.9256 17.17C18.2887 15.864 19.2545 14.2111 19.7721 12.2983C20.0751 11.1792 20.0762 8.82536 19.7742 7.72251C18.7156 3.85531 16.1268 1.24662 12.37 0.261786C11.4706 0.0259427 9.30131 -0.0809835 8.47792 0.0698228ZM11.7391 1.43051C14.9043 2.03787 17.5393 4.49727 18.4682 7.71131C18.6613 8.3796 18.6945 8.7254 18.6886 10.011C18.6823 11.3591 18.6518 11.6222 18.4075 12.4234C17.5527 15.2292 15.3996 17.4166 12.6101 18.3133C10.3244 19.0482 7.76979 18.7663 5.56908 17.5363C5.2648 17.3662 4.9215 17.2263 4.80613 17.2253C4.69076 17.2243 4.08654 17.3854 3.46341 17.5833C2.84018 17.7812 2.30748 17.9202 2.27962 17.8923C2.25165 17.8644 2.39197 17.3505 2.59133 16.7505C2.79069 16.1505 2.95384 15.575 2.95384 15.4717C2.95384 15.3684 2.74986 14.9557 2.5005 14.5544C1.51869 12.9747 1.19641 11.7002 1.26601 9.6722C1.30745 8.46413 1.35252 8.17927 1.63547 7.33788C2.12803 5.87359 2.66023 5.01122 3.75853 3.89758C5.06263 2.57533 6.50744 1.77015 8.17374 1.43717C9.07479 1.25711 10.8183 1.25388 11.7391 1.43051ZM5.97474 4.99276C5.78292 5.0897 5.43701 5.40312 5.20596 5.6892C3.72383 7.52439 4.14458 10.253 6.25718 12.5064C8.61471 15.0212 11.9546 16.1835 13.9872 15.1966C14.9482 14.7302 15.7721 13.5946 15.7702 12.7393C15.7685 11.9786 15.5901 11.7922 14.229 11.1295C12.5572 10.3155 12.2732 10.3395 11.6042 11.352L11.4533 11.5804L10.8114 11.1992C10.0319 10.7362 9.39134 10.1832 8.87272 9.52512L8.48375 9.03165L8.78661 8.68565C9.17659 8.24029 9.21028 7.87846 8.9208 7.24628C8.83419 7.05725 8.63191 6.58294 8.47128 6.19225C8.31064 5.80157 8.10112 5.39394 8.00567 5.28631C7.58894 4.81644 6.60461 4.6741 5.97474 4.99276ZM7.44721 7.00399L7.80118 7.83004L7.48342 8.22658C7.08832 8.71965 7.06801 9.09893 7.40577 9.67381C8.05264 10.7749 9.42383 11.9761 10.7375 12.5926C11.6243 13.0088 11.9768 12.9544 12.4344 12.3304C12.614 12.0855 12.7959 11.8832 12.8386 11.8811C13.0309 11.8713 14.5212 12.7003 14.5212 12.817C14.5212 13.0126 14.0781 13.5767 13.7111 13.8483C13.533 13.98 13.1353 14.1403 12.8273 14.2044C10.1408 14.7637 5.85464 11.4103 5.59573 8.54645C5.52985 7.81844 5.7618 7.00752 6.18094 6.50012C6.43743 6.18973 6.55492 6.12225 6.79562 6.14706C7.06408 6.1748 7.12775 6.25853 7.44721 7.00399Z" fill="black" />
</svg>